<?xml version="1.0" standalone="no"?><svg xmlns="http://www.w3.org/2000/svg"><metadata>Created by youziku.com at Thu, 24 Sep 2015 19:35:58 GMT</metadata><defs><font id="DroidSans" horiz-adv-x="2048" ><font-face font-family="DroidSans" font-weight="400" font-stretch="normal" font-style="normal" units-per-em="2048" panose-1="2 11 6 6 3 8 4 2 2 4" ascent="1638" descent="-410" bbox="-1240.06 -1000 15000 2192" underline-thickness="102" underline-position="-103" unicode-range="U+0001-FFFD"  /><missing-glyph /><glyph glyph-name="" unicode="" /><glyph glyph-name="space" unicode=" "  horiz-adv-x="1024" /><glyph glyph-name="quotedbl" unicode="&#x0022;" d="M113 1345c-5 42 30 102 70 102s96 -37 94 -80c26 -144 23 -214 28 -373c1 -38 -57 -70 -90 -70c-47 0 -80 29 -80 72c-1 152 -5 210 -22 349zM636 1013c3 -67 -102 -109 -148 -59c-13 15 -20 32 -20 51c-1 144 -1 222 -22 352c-20 43 35 101 70 100c43 0 89 -38 96 -76
c19 -119 18 -237 24 -368z" horiz-adv-x="806" /><glyph glyph-name="period" unicode="." d="M402 80c-19 -16 -87 -24 -61 -60c34 -48 57 -73 57 -82c0 -32 -11 -45 -41 -40c-13 3 -44 15 -89 42c-16 10 -29 7 -46 -9c-38 -35 -67 -50 -80 -50c-29 -1 -39 14 -28 47c9 29 21 59 35 90c7 16 1 27 -17 33l-52 33c-58 57 45 64 87 71c41 7 32 56 50 87
c18 32 40 31 54 1c12 -26 13 -79 43 -83c63 17 160 -19 88 -80zM222 104c1 19 -20 34 -40 34c-44 0 -49 -62 0 -62c17 0 39 15 40 28z" horiz-adv-x="549" /><glyph glyph-name="slash" unicode="/" d="M468 1445c35 31 128 18 136 -35c8 -57 -38 -132 -54 -196c-79 -311 -145 -663 -174 -1021c-9 -112 4 -217 -126 -187c-37 9 -52 37 -52 85c0 333 65 689 133 980c32 137 59 246 108 339c7 13 17 25 29 35z" horiz-adv-x="764" /><glyph glyph-name="colon" unicode=":" d="M192 1130c104 42 199 -21 174 -124c-11 -49 -83 -122 -162 -76c-23 13 -78 56 -72 96c9 58 28 91 60 104zM183 171c64 42 149 13 167 -40c36 -106 9 -164 -96 -170c-64 -3 -127 36 -122 106c4 52 22 85 51 104z" horiz-adv-x="549" /><glyph glyph-name="equal" unicode="=" d="M88 904c0 65 51 84 111 84l728 -5c55 -1 108 -20 108 -79c0 -56 -63 -77 -114 -77l-727 7c-50 -1 -106 22 -106 70zM1035 527c0 -50 -53 -75 -105 -76l-726 -16c-82 -14 -148 73 -81 125c21 16 44 23 68 24l731 16c45 3 113 -25 113 -73z" horiz-adv-x="1128" /><glyph glyph-name="a" unicode="a" d="M988 5c-30 0 -79 14 -79 53c0 95 -17 128 -48 97c-129 -127 -460 -231 -649 -83c-129 101 -227 248 -211 479c22 319 227 492 531 535c172 24 308 -50 387 -127c28 -46 34 -5 81 -5c48 0 82 -33 82 -76l-3 -800c8 -56 -51 -73 -91 -73zM473 175c208 -9 321 125 376 284
c45 128 10 281 -51 357c-68 86 -233 119 -373 66c-184 -70 -317 -294 -209 -524c46 -97 135 -178 257 -183z" horiz-adv-x="1087" /><glyph glyph-name="b" unicode="b" d="M111 1371c-2 33 58 88 94 83c27 5 91 -47 91 -70v-531c116 95 232 143 442 88c167 -43 287 -177 338 -336c75 -234 -22 -458 -175 -539c-110 -59 -202 -82 -341 -55c-106 20 -186 79 -266 133v-73c-53 -48 -92 -63 -152 -27c-21 13 -31 27 -31 42v1285zM316 582
c-29 -81 2 -234 56 -289c102 -103 341 -181 457 -49c71 80 110 177 72 316c-25 92 -110 164 -209 190c-90 44 -218 15 -283 -37c-45 -37 -75 -81 -93 -131z" horiz-adv-x="1200" /><glyph glyph-name="c" unicode="c" d="M898 873c31 -63 -7 -144 -84 -129c-21 4 -37 18 -48 45c-45 112 -137 170 -286 119c-164 -57 -286 -179 -294 -395c-8 -231 145 -371 371 -333c82 14 161 51 227 117c31 31 90 43 116 -2c29 -50 4 -101 -22 -126c-108 -104 -257 -187 -467 -163
c-250 29 -377 234 -377 510c0 222 112 375 243 480c98 78 266 141 422 71c83 -37 153 -100 199 -194z" horiz-adv-x="948" /><glyph glyph-name="d" unicode="d" d="M548 945c92 9 203 -47 245 -73c-6 75 50 476 65 526c8 26 43 83 87 59c28 -1 63 -59 57 -95c-61 -364 -127 -873 -61 -1253c13 -78 -54 -138 -115 -94c-27 30 -34 45 -37 103c-1 28 0 43 4 48c-19 -30 -56 -65 -111 -106s-141 -64 -256 -55c-226 19 -334 234 -312 488
c22 256 173 428 434 452zM338 220c65 -66 231 -59 304 2c100 82 159 212 131 387c-18 110 -101 168 -225 168c-232 0 -333 -251 -259 -481c9 -27 26 -52 49 -76z" horiz-adv-x="1200" /><glyph glyph-name="e" unicode="e" d="M491 1135c226 31 402 -52 481 -183c63 -103 63 -232 5 -340c-130 -240 -574 -294 -773 -109c-5 4 -12 -2 -12 -16c-3 -103 50 -164 120 -217c85 -65 199 -91 337 -67c119 21 229 75 300 144c26 25 102 41 133 10c35 -34 31 -110 0 -142c-138 -144 -387 -259 -676 -201
c-246 49 -416 254 -397 547c20 307 187 534 482 574zM356 894c-63 -47 -119 -129 -130 -209c130 -95 508 -117 600 29c56 89 -29 170 -94 207c-124 70 -289 38 -376 -27z" horiz-adv-x="1096" /><glyph glyph-name="g" unicode="g" d="M506 1093c394 -3 498 -150 519 -529l12 -211c-27 -239 -27 -490 -147 -637c-102 -124 -236 -225 -474 -211c-152 9 -281 44 -349 141c-34 48 -36 102 -3 142c43 51 106 17 135 -15c63 -65 191 -96 317 -81c129 16 235 115 282 223c32 74 34 191 47 279
c-67 -63 -174 -104 -323 -122s-279 61 -410 220c-93 112 -99 363 -33 505c68 147 222 298 427 296zM584 868c-218 44 -384 -81 -366 -300c14 -165 147 -308 356 -277c100 15 219 62 252 165c27 86 -19 256 -74 312c-46 47 -100 86 -168 100z" horiz-adv-x="1061" /><glyph glyph-name="h" unicode="h" d="M226 147c-1 377 -11 752 -32 1119c-6 104 161 114 163 14c4 -175 7 -362 17 -528c33 77 144 127 245 119c363 -30 384 -418 384 -820c0 -86 -157 -80 -157 0c0 234 16 485 -114 593c-68 57 -192 57 -270 1c-44 -32 -69 -136 -71 -319c0 -88 5 -187 3 -273
c-1 -32 -44 -62 -85 -62c-35 0 -77 24 -79 62z" horiz-adv-x="1206" /><glyph glyph-name="i" unicode="i" d="M280 843c0 53 42 88 86 89c49 2 79 -41 78 -87c-6 -226 -4 -522 8 -748c4 -56 -29 -97 -70 -97c-53 0 -92 28 -92 97c0 244 -10 496 -10 746zM400 1357c53 103 120 148 194 118c61 -25 82 -87 70 -168c-7 -43 -59 -82 -152 -128c-24 -12 -118 -85 -132 -128
c-13 -21 -17 -14 -22 2c-17 56 -79 120 -116 144c-75 49 -123 93 -134 134c-26 100 7 167 88 198c99 15 167 -43 204 -172zM230 1473c-76 7 -82 -124 -8 -128c71 -2 83 122 8 128z" horiz-adv-x="758" /><glyph glyph-name="k" unicode="k" d="M98 1524c47 65 154 20 154 -60v-769c226 85 344 236 474 420c20 28 94 48 129 8c36 -42 40 -112 0 -163c-83 -105 -233 -275 -352 -354c65 -133 182 -249 292 -342c40 -34 77 -59 110 -78c28 -16 41 -42 43 -74c5 -71 -19 -94 -72 -104c-83 -15 -109 23 -170 74
c-135 114 -277 268 -354 445c-35 -15 -62 -39 -100 -50v-412c-1 -46 -40 -81 -93 -81c-50 0 -91 37 -91 84l5 1388c0 25 9 47 25 68z" horiz-adv-x="1016" /><glyph glyph-name="l" unicode="l" d="M195 1430c0 46 28 103 76 103c41 -1 74 -50 74 -98v-1364c3 -32 -44 -71 -74 -71c-46 0 -76 34 -76 77v1353z" horiz-adv-x="530" /><glyph glyph-name="n" unicode="n" d="M166 1036c-1 47 30 90 75 90c54 0 94 -39 94 -78v-93c21 58 139 121 213 127c402 34 502 -365 476 -793c-6 -85 -11 -160 -16 -227c-19 -41 -34 -74 -101 -70c-43 3 -82 47 -79 96c17 246 59 612 -90 743c-53 47 -96 62 -178 65c-119 -29 -178 -69 -223 -209v-587
c0 -33 -60 -76 -98 -72c-33 -4 -73 45 -73 75v933z" horiz-adv-x="1206" /><glyph glyph-name="o" unicode="o" d="M996 921c53 -89 80 -206 86 -350c8 -189 -66 -354 -174 -459c-100 -98 -291 -145 -478 -82c-128 43 -222 136 -277 286s-66 303 -36 460c31 164 115 273 248 338c293 143 526 -14 631 -193zM690 218c129 30 222 175 222 332c0 93 -21 183 -72 270
c-58 98 -155 144 -288 138s-233 -83 -269 -237c-54 -232 23 -399 202 -494c82 -20 151 -23 205 -9z" horiz-adv-x="1182" /><glyph glyph-name="r" unicode="r" d="M144 -16c-31 3 -71 22 -71 67v959c-2 50 27 97 71 98c34 -8 71 -24 71 -80v-220c6 38 63 96 94 117c48 32 137 61 222 41c99 -23 173 -89 208 -189c24 -70 11 -121 -18 -160c-52 -28 -88 -7 -109 44c-34 81 -108 141 -204 102c-50 -20 -81 -60 -108 -97
c-98 -134 -85 -340 -85 -597c0 -50 -37 -81 -71 -85z" horiz-adv-x="817" /><glyph glyph-name="s" unicode="s" d="M713 788c0 146 -258 204 -354 94c-16 -20 -39 -79 -15 -118c44 -73 161 -100 240 -142c101 -54 176 -100 212 -191c39 -99 14 -217 -38 -283c-75 -95 -197 -162 -364 -155c-200 9 -332 163 -332 371c0 51 6 97 61 103c60 20 98 -27 101 -77c5 -134 63 -209 183 -226
c97 -14 216 59 221 149c8 135 -93 151 -184 186c-117 45 -246 82 -282 204c-30 103 25 249 66 297c58 67 125 103 204 112c235 26 400 -97 436 -276c17 -82 -42 -146 -121 -110c-23 11 -34 33 -34 62z" horiz-adv-x="924" /><glyph glyph-name="t" unicode="t" d="M479 1280c45 3 82 -44 82 -80v-293c95 2 202 -23 275 -40c35 -8 60 -70 43 -116c-12 -34 -57 -64 -106 -45c-51 20 -138 27 -212 27v-673c3 -90 -165 -91 -165 -2v675c-87 1 -90 8 -256 -11c-82 -9 -96 100 -58 147c12 15 31 24 52 25c87 5 177 4 262 11v295
c-3 50 39 77 83 80z" horiz-adv-x="909" /><glyph glyph-name="u" unicode="u" d="M180 1032c0 47 44 75 82 75c54 0 89 -36 87 -104c-8 -250 -42 -569 82 -712c43 -49 141 -78 222 -51c141 48 180 228 206 394c18 113 19 254 19 369c0 65 36 90 87 90c53 0 70 -40 70 -99v-902c12 -93 -69 -111 -129 -77c-51 29 -20 141 -28 215c23 29 45 59 26 22
c-13 -26 -45 -72 -65 -93c-63 -66 -163 -111 -283 -104c-208 12 -296 164 -346 337c-53 184 -30 424 -30 640z" horiz-adv-x="1206" /><glyph glyph-name="w" unicode="w" d="M1424 1081c60 4 97 -50 97 -105c0 -438 -79 -749 -322 -957c-31 -26 -120 -50 -155 -2c-115 100 -202 217 -268 349c-11 23 -15 37 -15 40c-31 -111 -98 -218 -164 -304c-44 -57 -68 -105 -152 -112c-25 -2 -43 10 -62 29c-215 220 -331 556 -380 941c-8 63 6 111 65 121
c70 12 116 -25 121 -86c19 -310 121 -599 268 -771c107 136 188 339 215 556c7 59 29 68 81 70c47 14 69 -45 76 -70c22 -75 50 -164 91 -266s100 -196 179 -282c98 75 168 192 209 350s47 290 24 394c-14 64 37 102 92 105z" horiz-adv-x="1528" /><glyph glyph-name="y" unicode="y" d="M8 987c-3 86 98 128 160 75c21 -17 31 -42 31 -75c-5 -162 61 -324 120 -447c65 -135 165 -287 271 -370c78 178 142 382 181 585l42 217c11 52 55 88 118 77c41 -8 77 -48 65 -104c-94 -435 -183 -898 -415 -1205c-70 -93 -155 -162 -254 -212c-51 -26 -100 1 -123 30
c-36 45 -6 116 40 138c123 59 204 179 266 304c-135 98 -257 281 -341 444c-77 150 -154 344 -161 543z" horiz-adv-x="1001" /><glyph glyph-name="asciitilde" unicode="~" d="M799 737c105 0 168 65 227 121v-162c-93 -112 -264 -135 -416 -78c-110 42 -264 138 -398 54c-39 -25 -78 -54 -110 -86v162c67 72 149 108 248 108c186 0 272 -119 449 -119z" horiz-adv-x="1128" /><glyph glyph-name="uni306E" unicode="&#x306E;" d="M762 58c-310 0 -582 230 -582 546c0 208 78 390 232 548c150 153 371 230 664 230c490 1 767 -269 764 -766c0 -145 -37 -294 -112 -446c-79 -160 -147 -243 -206 -250c-44 7 -66 27 -66 62c0 28 24 75 74 140c107 139 162 290 162 454c1 474 -214 664 -688 662
c168 -169 252 -396 252 -680c0 -306 -213 -500 -494 -500zM1114 570c0 108 -31 237 -94 388c-44 104 -105 191 -184 262c-115 -28 -214 -76 -294 -150c-148 -138 -220 -291 -220 -454c0 -358 447 -552 690 -314c69 67 102 157 102 268z" /><glyph glyph-name="uni4E00" unicode="&#x4E00;" d="M1760 882c80 0 126 -26 126 -72c0 -44 -25 -74 -72 -74c-751 -7 -1032 -48 -1590 -48c-57 0 -88 29 -88 80c0 36 32 58 96 64c309 28 819 50 1528 50z" /><glyph glyph-name="uni4E03" unicode="&#x4E03;" d="M248 840c-76 0 -122 17 -122 88c0 35 27 55 72 58c99 7 195 14 288 22c47 148 121 333 224 554c27 35 56 52 88 54c62 4 63 -80 42 -126c-82 -176 -140 -332 -184 -464c355 40 682 92 974 176c69 20 125 40 176 40c53 0 81 -25 80 -66c-1 -39 -24 -58 -64 -72
c-161 -57 -863 -220 -1220 -244c-70 -227 -106 -541 46 -684c87 -82 223 -120 400 -120c138 0 441 68 728 154c45 -3 69 -25 72 -66c-5 -39 -24 -65 -56 -80c-95 -45 -213 -74 -352 -104c-297 -65 -671 -79 -864 74c-200 158 -209 502 -132 814c-65 -4 -131 -8 -196 -8z" /><glyph glyph-name="uni4E07" unicode="&#x4E07;" d="M262 -48c0 160 349 1297 376 1370c-144 -4 -282 -8 -414 -8c-57 0 -88 28 -88 80c0 35 32 58 96 62c306 18 810 26 1510 26c83 0 130 -26 130 -72c0 -44 -26 -73 -72 -74c-422 -6 -757 -5 -1004 -10c-47 -154 -95 -313 -134 -450c237 99 721 247 954 40
c86 -76 110 -161 110 -282c0 -193 -141 -570 -222 -682c-27 -38 -49 -64 -80 -64c-51 0 -80 29 -88 80c3 9 9 23 18 40c99 164 197 410 204 630c8 250 -287 263 -510 204c-116 -31 -245 -61 -380 -116c-20 -8 -33 -13 -54 -12c-97 -329 -163 -584 -206 -762
c-11 -46 -44 -72 -88 -72c-36 0 -58 27 -58 72z" /><glyph glyph-name="uni4E09" unicode="&#x4E09;" d="M270 1520c553 0 1044 -34 1464 -110c60 -11 88 -47 88 -80c0 -49 -24 -82 -62 -82c-67 0 -171 15 -314 38c-265 42 -658 62 -1176 82c-56 2 -88 35 -88 80c0 47 32 72 88 72zM1566 856c83 0 130 -24 130 -70c0 -44 -27 -71 -74 -72c-393 -10 -691 -24 -892 -50
c-124 -16 -243 -30 -356 -30c-56 0 -88 29 -88 80c0 35 33 51 96 62c242 40 636 80 1184 80zM1718 160c83 0 130 -25 130 -72c0 -43 -27 -70 -72 -70c-716 -7 -979 -50 -1514 -50c-56 0 -88 30 -88 82c0 35 32 58 96 64c294 27 777 46 1448 46z" /><glyph glyph-name="uni4E0D" unicode="&#x4E0D;" d="M1188 1322c-353 -4 -590 -24 -910 -24c-56 0 -88 29 -88 80c0 35 32 58 96 62c298 21 787 34 1466 34c81 0 128 -26 128 -72c0 -44 -27 -71 -72 -72c-168 -4 -321 -3 -458 -4c6 -33 -6 -59 -32 -84c-135 -130 -280 -257 -424 -392c11 -4 20 -9 26 -18
c158 -233 259 -392 272 -726c6 -167 -109 -242 -248 -242c-83 0 -154 20 -162 96c7 44 31 69 74 74c18 2 83 -29 94 -26c62 2 96 29 96 90c0 96 -14 188 -44 276s-101 209 -212 362l-4 12c-161 -152 -327 -306 -492 -466c-26 -25 -47 -42 -70 -42c-73 0 -85 96 -42 144
c328 365 671 671 1006 938zM1150 722c0 59 90 63 138 38c202 -105 378 -172 526 -200c52 -10 82 -28 82 -64c0 -53 -30 -88 -82 -88c-51 0 -115 13 -194 38c-137 44 -277 107 -420 188c-29 17 -50 46 -50 88z" /><glyph glyph-name="uni4E48" unicode="&#x4E48;" d="M1080 1520c48 33 142 35 142 -30c0 -37 -19 -60 -46 -80c-128 -94 -394 -267 -806 -512c-35 -21 -63 -33 -84 -32c-47 2 -70 26 -70 70c0 32 16 50 40 64c305 173 579 349 824 520zM816 -48c-226 -2 -378 137 -378 364c0 92 41 195 126 306c96 125 261 243 486 364
c164 88 300 152 414 152c61 0 94 -25 94 -66c0 -33 -18 -61 -54 -72c-284 -88 -512 -193 -674 -332c-160 -138 -238 -257 -238 -352c0 -138 84 -211 224 -210c81 0 196 21 344 68c122 39 226 89 314 144c16 10 30 15 42 16c-48 89 -99 162 -140 226c-30 47 -26 140 48 138
c31 0 62 -15 88 -50c88 -120 186 -298 294 -534c18 -40 24 -71 24 -88c0 -51 -26 -80 -70 -80c-36 0 -60 13 -72 38c-39 85 -76 164 -112 236c-9 -11 -21 -18 -32 -26c-133 -95 -526 -240 -728 -242z" /><glyph glyph-name="uni4E4B" unicode="&#x4E4B;" d="M1566 992c0 165 -157 256 -314 256c-65 0 -153 -11 -264 -30c-173 -30 -383 -77 -626 -150c-72 -22 -152 -35 -164 36c3 35 21 63 58 80c125 59 447 131 632 168c-31 51 -57 89 -82 114c-19 19 -32 48 -32 88c0 43 30 70 74 70c66 0 123 -95 156 -132
c32 -35 47 -69 40 -112c75 10 129 14 202 14c258 0 491 -162 474 -426c-5 -80 -21 -159 -64 -238c-67 -121 -227 -309 -482 -564c192 -35 375 -75 546 -132c58 -19 88 -52 88 -88c0 -54 -30 -86 -74 -88c-65 -3 -167 28 -308 74c-260 84 -650 133 -1164 166
c-62 4 -94 36 -94 88c0 44 33 70 94 70c257 0 500 -26 728 -58c280 284 472 497 524 604c35 69 52 133 52 190z" /><glyph glyph-name="uni4E56" unicode="&#x4E56;" d="M872 1416c-168 -21 -337 -72 -498 -72c-52 0 -80 27 -80 72c0 36 31 52 88 66c240 58 628 118 1168 118c77 0 122 -22 122 -64c0 -43 -25 -68 -72 -70c-228 -9 -423 -18 -584 -34c11 -51 21 -144 32 -280c197 4 419 8 664 8c80 0 128 -25 128 -72c0 -44 -25 -71 -72 -72
c-273 -5 -511 -5 -712 -10c24 -338 60 -943 56 -1038c-3 -77 -25 -118 -66 -118c-53 0 -87 30 -88 88c-12 499 -28 741 -48 1062c-250 -7 -483 -30 -720 -30c-56 0 -88 28 -88 80c0 35 32 56 96 62c172 17 407 28 704 36c-12 92 -28 195 -30 268zM574 652
c-10 43 -25 113 -24 142c1 48 21 72 64 72c45 0 75 -30 88 -90c34 -65 81 -673 80 -728c-3 -84 -27 -128 -72 -128c-55 0 -85 32 -88 88c-2 39 -3 75 -4 110c-225 -87 -382 -142 -402 -142c-41 0 -64 19 -64 58c0 44 21 78 64 94c230 84 328 125 396 118
c-7 112 -17 183 -24 262c-9 -3 -19 -4 -28 -4c-136 4 -248 19 -336 42c-46 12 -72 35 -72 72c0 44 31 70 88 70c131 0 242 -16 334 -36zM1534 -48c-234 0 -334 157 -328 402c2 68 31 228 104 478c14 48 47 72 88 72c48 0 72 -24 72 -72c0 -74 -36 -136 -48 -192
c45 0 348 -21 354 -22c51 -19 80 -45 80 -80c0 -42 -31 -66 -80 -66s-180 8 -392 24c-16 -67 -24 -111 -24 -134c1 -179 26 -257 184 -264c2 -8 190 54 248 54c45 0 72 -21 72 -64c0 -41 -22 -67 -64 -80c-140 -43 -154 -56 -266 -56z" /><glyph glyph-name="uni4E5F" unicode="&#x4E5F;" d="M362 928c-49 -18 -100 -35 -130 -46c-78 -3 -107 91 -46 126c21 13 53 22 92 34c46 14 89 34 132 50c31 104 69 217 116 340c4 44 29 66 74 66c44 0 72 -27 72 -82c0 -49 -19 -132 -58 -248c227 83 408 139 544 168c15 107 26 182 34 226c16 35 45 54 88 54
c73 0 77 -88 38 -142c-4 -39 -9 -77 -14 -114c189 9 313 -17 420 -126c103 -105 137 -178 132 -324c-7 -195 -97 -445 -160 -574c-47 -32 -133 -14 -130 42c3 47 15 96 34 148c70 188 104 313 104 376c0 225 -202 359 -420 302c-45 -341 -76 -595 -92 -762
c-17 -47 -49 -72 -96 -72c-36 0 -55 27 -58 72c-6 10 77 591 94 730c-141 -39 -335 -99 -580 -180c-76 -243 -114 -423 -114 -542c0 -305 170 -440 474 -442c123 0 385 41 786 126c50 11 83 18 102 18c49 0 80 -15 80 -46c0 -53 -25 -87 -72 -98
c-458 -105 -691 -144 -962 -144c-133 0 -254 33 -356 106c-146 104 -203 289 -196 544c3 107 23 245 68 414z" /><glyph glyph-name="uni4E60" unicode="&#x4E60;" d="M1662 1014c5 265 -180 404 -434 404c-315 0 -550 -61 -838 -142c-59 -17 -134 -12 -134 46c0 33 16 66 56 80c208 74 633 160 948 160c168 0 308 -47 408 -152c113 -120 146 -246 146 -428c0 -271 -115 -882 -198 -1062c-17 -36 -45 -54 -74 -54c-47 0 -73 27 -80 72
c96 297 193 724 200 1076zM576 1112c52 0 181 -93 398 -264c59 -47 52 -150 -32 -150c-25 0 -55 9 -86 30c-91 60 -193 139 -306 234c-29 24 -46 53 -46 88c0 40 28 62 72 62zM1222 496c58 35 160 35 160 -38c0 -40 -18 -69 -46 -88c-137 -55 -434 -144 -880 -294
c-79 -27 -174 -26 -170 62c1 35 17 59 42 72c331 97 629 193 894 286z" /><glyph glyph-name="uni4E66" unicode="&#x4E66;" d="M792 700c170 21 364 29 546 16c3 27 11 56 28 86c69 124 104 207 104 248c0 122 -118 184 -230 184c-68 0 -227 -27 -476 -80c9 -157 19 -309 28 -454zM1616 1098c8 -157 -82 -310 -142 -402c65 -13 125 -28 174 -54c134 -72 174 -136 174 -276
c0 -104 -84 -304 -134 -358c-24 -25 -46 -39 -66 -40c-85 -2 -95 77 -56 134c78 113 114 205 114 272c0 84 -36 139 -110 162c-198 62 -513 60 -770 16c12 -202 40 -458 40 -640c0 -44 -27 -67 -66 -70c-99 13 -80 107 -92 224c-16 154 -18 308 -26 460
c-93 -20 -192 -41 -294 -68c-57 -15 -97 -26 -122 -26c-96 -3 -103 90 -42 122c97 50 300 95 448 122c-11 152 -21 301 -30 446c-70 -18 -171 -48 -242 -56c-77 -9 -105 80 -46 118c21 13 48 26 88 34c68 14 132 31 192 46c-5 81 -16 161 -16 240c0 60 23 92 64 96
c67 5 84 -66 88 -118c5 -63 8 -124 12 -184c253 49 356 70 508 70c99 0 183 -27 250 -86s99 -121 102 -184zM1592 1570c24 0 55 -17 90 -54c33 -35 116 -155 116 -228c0 -39 -27 -62 -72 -62c-27 0 -52 14 -72 44c-41 61 -81 115 -116 166c-35 52 -24 137 54 134z" /><glyph glyph-name="uni4E86" unicode="&#x4E86;" d="M1032 18c106 0 144 75 144 192c0 91 -19 178 -54 262s-119 199 -252 344c-28 54 -13 124 50 128c339 148 542 249 608 306c73 63 102 124 -8 154c-155 43 -319 31 -522 12c-180 -16 -396 -44 -648 -84c-43 -7 -74 -10 -94 -10c-40 0 -66 15 -66 46c0 35 18 61 50 80
c230 48 790 126 1024 122c141 -2 261 -18 352 -64c100 -51 136 -95 136 -182c0 -47 -24 -93 -74 -138c-82 -73 -289 -187 -620 -344c148 -187 260 -335 260 -626c0 -115 -21 -200 -68 -250c-61 -64 -138 -94 -226 -94c-161 0 -293 18 -394 58c-28 11 -43 35 -46 70
c5 44 29 72 72 72c49 0 106 -14 172 -28c107 -22 176 -26 204 -26z" /><glyph glyph-name="uni4E8B" unicode="&#x4E8B;" d="M1026 604c-183 -6 -488 -58 -660 -58c-65 0 -104 24 -104 72c0 35 27 55 74 62c213 31 441 51 682 62c-3 25 -5 50 -6 74c-200 1 -564 -11 -668 40c-78 38 -107 83 -104 172c3 76 40 220 130 212c194 33 384 48 556 54c-5 28 -12 57 -20 86c-175 7 -379 8 -612 22
c-57 3 -88 33 -88 72c0 51 38 80 106 80c76 0 260 -5 552 -16c-17 79 100 100 144 48l12 -52c371 -11 585 -18 642 -22c52 -16 80 -43 80 -80c0 -46 -33 -72 -88 -72c-99 0 -297 5 -594 14c8 -25 15 -51 20 -76c257 1 449 -20 538 -64c97 -48 134 -103 134 -202
c0 -85 -34 -142 -102 -172c-97 -44 -323 -47 -492 -44c3 -21 5 -44 6 -68c91 3 184 5 280 4c197 -3 323 -104 330 -308c67 3 114 -36 114 -74c0 -56 -54 -73 -118 -64c-31 -215 -193 -280 -426 -280c-73 0 -143 1 -210 4c-31 -108 -108 -193 -176 -188
c-95 7 -190 15 -190 104c0 62 72 93 130 54c73 -19 82 -36 104 36c-268 17 -505 62 -716 116c-57 15 -88 36 -88 80c0 35 25 58 72 58c29 0 75 -15 140 -30c208 -48 414 -72 614 -88c4 44 6 95 6 154c-199 7 -433 11 -702 28c-47 3 -72 29 -72 62c0 47 31 72 88 72
c91 0 319 -6 686 -18c0 45 -1 90 -4 134zM1108 1160c13 -71 25 -134 32 -206c122 0 392 -5 430 28c25 11 38 36 38 76c0 31 -24 55 -72 74c-50 20 -231 29 -428 28zM382 1016c0 -47 35 -62 78 -62h534c-9 61 -22 129 -38 202c-214 -7 -380 -26 -548 -50
c-17 -35 -26 -65 -26 -90zM1630 448c-8 136 -52 170 -186 170c-89 0 -180 -2 -272 -6c1 -48 3 -97 4 -146c195 -8 346 -14 454 -18zM1174 320c-1 -57 -5 -109 -10 -156c138 -6 324 -15 396 46c32 17 53 50 62 98c-115 3 -264 7 -448 12z" /><glyph glyph-name="uni4E8C" unicode="&#x4E8C;" d="M350 1448c86 5 1377 -83 1392 -88c51 -16 80 -43 80 -80c0 -44 -33 -70 -88 -70c-175 0 -641 25 -1398 88c-58 5 -88 33 -88 70c0 52 37 76 102 80zM1596 164c106 0 252 35 252 -66c0 -43 -26 -76 -72 -80c-297 -26 -1028 -44 -1448 -42c-84 0 -138 15 -138 96
c0 40 29 65 80 66c497 7 939 26 1326 26z" /><glyph glyph-name="uni4ECE" unicode="&#x4ECE;" d="M672 1616c75 0 76 -88 38 -142c-93 -311 -173 -579 -238 -806c11 -3 22 -5 32 -12c129 -89 239 -153 336 -176c50 -12 80 -29 80 -64c0 -115 -120 -96 -216 -54c-90 39 -183 89 -276 156c-55 -189 -91 -347 -124 -470c-13 -47 -50 -72 -98 -72c-35 0 -54 27 -54 72
c0 173 413 1494 432 1514c16 35 45 54 88 54zM1496 1634c70 0 73 -81 48 -136c-84 -182 -176 -413 -272 -696c16 -7 30 -19 46 -34c173 -157 373 -386 590 -694c37 -52 52 -91 52 -114c0 -45 -27 -72 -72 -72c-31 0 -53 12 -66 32c-211 311 -411 555 -600 732
c-96 -289 -163 -530 -206 -722c-9 -39 -37 -61 -80 -66c-39 5 -66 30 -66 74c0 72 43 248 134 528c184 567 320 942 412 1120c16 31 45 48 80 48z" /><glyph glyph-name="uni4EE5" unicode="&#x4EE5;" d="M526 252c150 32 201 110 330 110c49 0 80 -20 80 -58c0 -43 -31 -73 -88 -94c-278 -105 -502 -176 -674 -176c-64 0 -102 28 -102 80c0 35 27 64 72 72c90 17 173 25 246 38c-8 31 -21 74 -26 132c-37 397 -108 783 -108 1164c0 60 23 92 64 96c66 6 83 -61 88 -118
c33 -386 67 -738 100 -1056c8 -79 17 -142 18 -190zM638 1176c17 0 52 -11 104 -30c229 -85 357 -135 384 -154c41 -16 64 -43 66 -80c3 -54 -72 -88 -132 -58c-101 51 -239 102 -412 154c-60 18 -94 47 -98 96c7 44 36 72 88 72zM1864 1456c69 2 80 -82 46 -134
c-211 -322 -392 -595 -536 -824c218 -66 472 -149 482 -162c40 -16 61 -43 62 -80c3 -56 -72 -84 -134 -58c-114 48 -271 93 -466 146c-12 3 -23 7 -34 14c-101 -165 -186 -300 -238 -412c-20 -44 -44 -74 -88 -74c-35 0 -54 27 -54 74c0 40 101 236 312 584
c284 470 480 759 568 880c19 27 41 45 80 46z" /><glyph glyph-name="uni4EEC" unicode="&#x4EEC;" d="M1742 1058c-1 145 -53 176 -188 176c-47 0 -139 -17 -270 -68c-53 -21 -124 -6 -124 44c0 48 36 84 96 104c141 47 210 66 324 64c173 -3 306 -83 306 -266c0 -244 -35 -431 -126 -944c-9 -51 -32 -80 -72 -80c-45 0 -72 29 -72 80c0 33 20 152 58 356
c46 249 69 427 68 534zM878 1498c28 0 61 -20 98 -60c36 -40 128 -177 128 -254c0 -39 -25 -62 -66 -62c-29 0 -55 17 -76 50c-45 71 -90 133 -126 190c-32 50 -34 136 42 136zM904 1080c-9 -114 -20 -223 -18 -382c3 -247 9 -403 28 -468c22 -74 23 -158 -52 -158
c-40 0 -74 23 -88 72c-34 121 -43 690 -14 930c7 51 31 80 72 80s65 -26 72 -74zM638 1234c51 0 80 -25 80 -66c0 -33 -23 -60 -62 -80c-101 -52 -185 -93 -252 -124c3 -4 4 -7 4 -10c20 -317 50 -580 90 -788c17 -84 35 -174 -52 -174c-39 0 -65 15 -80 42
c-41 190 -87 639 -102 866c-44 -17 -71 -26 -82 -26c-45 0 -72 21 -72 62c0 44 24 76 64 96c263 132 417 202 464 202z" /><glyph glyph-name="uni4F1A" unicode="&#x4F1A;" d="M1030 1600c1 -29 -30 -81 -58 -96c367 -101 839 -236 850 -256c36 -16 56 -43 56 -80c0 -39 -28 -64 -80 -64c-13 0 -42 6 -86 22c-207 74 -482 155 -826 242c-17 4 -31 10 -40 18c-179 -169 -362 -349 -552 -538c-25 -25 -49 -38 -70 -38c-73 0 -85 94 -42 144
c229 266 480 481 712 680c53 45 132 40 136 -34zM630 1080c53 2 824 -50 832 -56c51 -16 80 -43 80 -80c0 -44 -33 -70 -88 -70c-105 0 -386 13 -840 54c-57 5 -88 35 -88 72c0 52 37 77 104 80zM286 458c-73 0 -119 10 -118 88c1 33 25 52 72 54c496 18 938 49 1324 104
c62 9 115 18 162 18c53 0 81 -25 80 -66c-1 -39 -23 -63 -64 -72c-44 -9 -107 -19 -188 -28c65 -164 141 -313 238 -440c53 -69 86 -123 86 -170c0 -45 -25 -72 -72 -72c-31 0 -59 16 -80 46c-51 71 -93 138 -130 198c-207 -87 -387 -147 -542 -180
c-183 -39 -268 -50 -398 -50c-84 0 -153 24 -212 64c-50 34 -78 81 -78 150c0 95 59 215 178 362c-85 -3 -171 -6 -258 -6zM526 118c8 -76 75 -83 186 -84c81 0 190 18 326 52c134 33 295 85 482 158c-72 127 -112 224 -120 292c-192 -24 -444 -50 -660 -62
c-7 -15 -15 -29 -26 -42c-125 -161 -193 -266 -188 -314z" /><glyph glyph-name="uni4F3C" unicode="&#x4F3C;" d="M688 1432c56 0 86 -25 86 -72c0 -33 -26 -62 -72 -80c-109 -43 -201 -76 -276 -104c3 -5 4 -11 4 -16c5 -459 11 -759 24 -1096c3 -81 -123 -79 -142 -24c-10 232 -24 839 -26 1088c-45 -16 -75 -24 -88 -24c-45 0 -72 21 -72 64c0 48 27 86 72 104
c275 109 439 160 490 160zM504 144c0 86 152 79 220 100c-22 179 -52 705 -52 886c0 43 22 70 64 70c41 0 68 -25 80 -70c11 -353 32 -597 54 -848c95 24 133 74 218 88c51 -3 80 -22 80 -58c0 -43 -32 -71 -88 -96c-196 -88 -352 -152 -474 -152c-64 0 -102 29 -102 80z
M1016 936c29 0 109 -45 232 -142c27 -22 40 -51 40 -80c0 -60 -69 -94 -122 -56c-50 36 -110 76 -174 128c-30 24 -48 53 -48 88c0 39 28 62 72 62zM1814 8c-137 15 -237 77 -350 140c-19 -88 -31 -168 -48 -236c-12 -46 -45 -70 -88 -70c-36 0 -56 26 -56 70
c0 177 342 1560 360 1578c15 29 41 45 80 46c67 2 76 -79 48 -134c-112 -452 -200 -821 -264 -1106c17 -3 34 -6 48 -14c105 -60 193 -105 270 -122c51 -11 82 -29 82 -62c0 -55 -30 -85 -82 -90z" /><glyph glyph-name="uni4F60" unicode="&#x4F60;" d="M606 1378c52 0 82 -25 82 -64c0 -35 -27 -57 -66 -80c-81 -49 -147 -99 -204 -138c3 -7 5 -15 6 -24c35 -322 102 -622 102 -928c0 -45 -19 -72 -54 -72c-47 0 -77 23 -90 64c-51 443 -83 735 -98 878c-60 -35 -97 -52 -110 -52c-45 0 -72 21 -72 62c0 44 27 73 66 98
c249 161 392 256 438 256zM1200 18c15 2 76 -30 88 -26c16 0 32 19 40 60c32 156 13 430 0 600c-10 127 -35 301 -72 524c-4 8 -7 17 -10 26c-77 -16 -162 -36 -250 -68c-54 -20 -72 -27 -118 -16c-52 -101 -105 -207 -160 -316c-24 -27 -47 -42 -70 -42
c-73 0 -70 88 -42 144c128 261 232 501 360 688c38 56 138 39 138 -30c0 -24 -12 -48 -32 -72c-37 -71 -75 -143 -114 -216c223 92 620 164 862 48c92 -44 116 -92 116 -186c0 -63 -42 -196 -72 -232c-23 -27 -49 -38 -72 -38c-72 0 -97 53 -68 106c40 72 60 129 60 172
c0 35 -21 57 -62 68c-72 19 -216 29 -322 16c45 -246 71 -422 86 -666c15 29 47 45 98 48c19 1 270 -48 272 -50c51 -16 80 -43 80 -80c0 -46 -33 -72 -88 -72c-36 0 -130 18 -282 50c-37 8 -63 19 -76 38c9 -173 13 -445 -46 -542c-65 -107 -157 -137 -268 -90
c-31 13 -47 41 -50 82c7 41 31 67 74 72zM870 786c46 44 154 45 154 -34c0 -24 -10 -58 -26 -104c-80 -225 -134 -403 -166 -534c-24 -41 -56 -66 -96 -66c-41 0 -64 25 -64 66c0 31 9 75 26 132c76 253 133 433 172 540z" /><glyph glyph-name="uni4FBF" unicode="&#x4FBF;" d="M496 1112c0 -219 -29 -749 12 -954c13 -64 10 -133 -54 -132c-39 0 -68 24 -88 72c-35 202 -20 720 -16 992c-79 -32 -127 -48 -144 -48c-45 0 -70 21 -70 62c0 48 25 85 70 106c290 136 461 206 512 206c56 0 88 -25 88 -72c0 -32 -26 -59 -70 -80
c-97 -46 -181 -83 -250 -114c5 -11 10 -23 10 -38zM914 276c-185 72 -300 213 -300 492c0 96 32 226 104 386c20 45 82 59 126 34c91 35 246 62 364 68c19 60 35 108 50 144c-115 9 -247 17 -396 32c-56 6 -88 33 -88 72c0 52 37 78 104 82c54 3 888 -62 898 -66
c51 -16 80 -43 80 -80c0 -46 -33 -72 -88 -72c-63 0 -183 7 -362 22c-8 -46 -28 -97 -40 -138c264 -19 458 -202 456 -466v-72c-5 -367 -377 -506 -764 -470c-8 -29 -15 -57 -22 -84c427 -72 669 -113 724 -134c41 -15 62 -45 62 -80c0 -44 -31 -70 -88 -74
c-15 -1 -46 5 -94 14c-173 36 -389 74 -646 114c-10 -60 -42 -115 -100 -112c-57 3 -63 70 -44 136c-93 9 -226 21 -220 112c3 44 34 74 88 74c31 0 87 -8 170 -24c9 28 18 58 26 90zM1320 1110c-24 -79 -47 -154 -68 -226c93 -12 287 32 284 -74c-1 -55 -40 -82 -112 -82
c-79 0 -152 1 -220 4c-39 -124 -73 -238 -102 -342c198 -21 388 22 486 108c60 53 94 139 92 262c-4 232 -118 342 -360 350zM954 420c29 101 68 224 94 322c-105 7 -199 18 -280 34c-3 3 -5 5 -8 6c-7 -191 62 -304 194 -362zM796 936c115 -7 165 -34 300 -42
c23 77 44 147 64 208c-84 -4 -236 -67 -326 -70c-13 -35 -26 -67 -38 -96z" /><glyph glyph-name="uni5019" unicode="&#x5019;" d="M672 1402c51 0 80 -25 80 -66c0 -33 -25 -58 -64 -80c-88 -49 -163 -93 -228 -128c3 -63 -15 -159 -38 -366c-21 -189 -30 -390 -40 -602c-2 -52 -30 -80 -70 -80c-44 0 -72 32 -72 88c0 212 23 504 70 876c-65 -35 -105 -52 -120 -52c-45 0 -72 22 -72 66s25 74 64 96
c277 159 439 248 490 248zM648 1050c43 0 66 -28 70 -80c-21 -129 -70 -429 -70 -608c0 -53 -32 -80 -72 -80c-44 0 -72 32 -72 88c0 141 26 341 72 600c9 49 30 80 72 80zM1696 1278c0 148 -114 154 -258 154c-119 0 -274 -21 -458 -86c-62 -22 -149 -19 -148 40
c0 25 11 49 38 62c145 73 368 122 584 122c214 0 386 -87 386 -300c0 -66 -36 -184 -60 -244c55 -11 92 -43 92 -82c0 -40 -31 -62 -80 -62c-96 0 -317 22 -662 66c-8 -36 -38 -91 -54 -126c103 -8 678 -85 692 -94c51 -16 80 -43 80 -80c0 -40 -31 -64 -80 -64
c-57 0 -173 12 -348 36c-37 -89 -97 -185 -136 -264c176 5 332 22 492 22c53 0 81 -25 80 -66c-1 -35 -20 -58 -56 -64c-61 -9 -407 -27 -586 -32c-57 -117 -97 -221 -134 -304c-19 -42 -56 -62 -96 -62c-36 0 -55 22 -56 62c-1 81 86 226 114 300c-59 -1 -119 -3 -180 -2
c-71 1 -111 10 -110 80c0 23 14 39 38 48c-29 4 -46 25 -46 62c0 29 11 69 32 120c85 204 151 354 198 450c-73 20 -238 4 -238 88c0 51 35 76 96 80c65 4 646 -71 788 -88c49 89 76 174 76 228zM1108 350c57 120 107 217 150 292c-77 11 -160 23 -248 36
c-49 -109 -84 -204 -116 -278c-12 -28 -35 -45 -58 -56c93 1 184 3 272 6zM1478 114c0 78 102 69 160 38c84 -45 156 -81 210 -118c42 -29 64 -61 62 -96c-2 -39 -24 -66 -62 -66c-35 0 -63 14 -88 32c-64 46 -139 82 -216 122c-40 20 -66 52 -66 88z" /><glyph glyph-name="uni505A" unicode="&#x505A;" d="M430 1026c5 -147 19 -383 16 -506c-4 -147 26 -254 34 -368c6 -82 -116 -79 -144 -24c-45 189 -25 595 -44 808c-60 -36 -97 -54 -110 -54c-45 0 -72 21 -72 62c0 44 27 73 64 98c261 177 410 280 456 280c52 0 80 -25 80 -66c0 -32 -25 -56 -62 -80
c-87 -56 -158 -109 -218 -150zM886 -80c-243 -9 -368 97 -368 344c0 221 50 369 234 406c1 32 17 129 46 292c-57 7 -121 14 -192 24c-51 7 -80 29 -80 64c0 51 35 80 96 80c31 0 99 -7 206 -20c40 219 64 360 84 418c13 38 47 58 88 58c72 0 74 -89 38 -146
c-23 -128 -44 -243 -64 -346c134 -18 166 -10 214 -34c72 201 129 349 172 444c38 42 141 50 144 -22c3 -47 -46 -141 -62 -194c37 -1 397 -52 406 -54c51 -17 80 -44 80 -80c0 -42 -31 -63 -80 -66c-43 -1 -246 25 -460 64c-59 -153 -103 -281 -132 -384
c-24 -40 -56 -62 -96 -62c-36 0 -55 22 -56 62c-1 35 16 99 38 160c-39 1 -103 7 -194 16c-17 -101 -31 -187 -40 -256c171 8 277 -96 294 -260c12 21 35 34 70 38c26 3 153 -70 200 -86c133 320 220 522 262 606c18 35 48 56 88 56c74 0 72 -83 42 -144
c-109 -224 -186 -423 -254 -584c131 -63 206 -105 230 -120c33 -21 56 -45 56 -80c0 -40 -30 -62 -82 -66c-8 0 -24 7 -48 22c-60 36 -130 74 -210 114c-37 -97 -68 -179 -92 -246c-17 -47 -49 -74 -96 -74c-36 0 -58 27 -58 74c0 24 37 128 110 312c-44 21 -90 45 -140 62
c-34 11 -59 22 -74 42v-58c7 -221 -119 -369 -320 -376zM664 274c0 -169 1 -210 184 -210c88 0 145 25 170 76c58 45 52 281 16 344c-23 40 -57 62 -106 62c-229 -2 -264 -62 -264 -272z" /><glyph glyph-name="uni50CF" unicode="&#x50CF;" d="M694 1440c57 0 88 -25 88 -72c0 -33 -28 -56 -72 -80c-119 -64 -215 -123 -292 -164c8 -21 12 -43 12 -66v-890c-4 -44 -25 -70 -64 -70c-35 0 -59 19 -72 54c-6 301 -11 609 -16 900c-36 -19 -60 -28 -72 -28c-45 0 -70 21 -70 64c0 48 28 80 70 104
c278 160 439 248 488 248zM1312 1456c-46 0 -196 -65 -240 -54c-52 -57 -95 -104 -122 -146c-25 -38 -54 -64 -94 -64c-37 0 -57 24 -58 64c0 16 14 39 40 70c106 129 189 218 242 274c39 41 135 53 142 -16c142 31 347 -8 362 -114c13 -96 -62 -162 -106 -230
c112 -11 193 -34 242 -70c81 -61 112 -134 110 -250c-2 -213 -117 -256 -326 -256h-282c76 -55 152 -147 184 -250c105 35 253 106 370 106c40 0 64 -23 64 -62c0 -36 -16 -65 -48 -88c-106 -30 -239 -60 -356 -96c4 -36 5 -71 2 -108c64 -7 192 -43 384 -110
c27 -23 42 -49 42 -80c0 -75 -87 -71 -156 -52c-95 27 -201 59 -318 98c-28 -64 -151 -172 -222 -172c-47 0 -72 26 -72 70c0 27 37 72 114 130c116 88 97 235 34 360c-31 62 -102 119 -210 174c-13 7 -24 13 -32 20c-113 -85 -233 -175 -354 -276c-27 -23 -49 -38 -72 -38
c-74 0 -77 88 -42 142c103 91 205 171 308 240c-165 15 -236 88 -236 266c0 68 29 132 74 200c28 41 77 59 118 32c183 59 323 82 530 78c1 15 4 28 8 40c69 81 104 127 104 136c0 21 -43 32 -128 32zM1634 1066c-38 33 -192 51 -340 44c-1 -49 -10 -152 -26 -308
c118 2 347 -13 390 38c20 15 30 49 30 104c0 51 -19 91 -54 122zM752 920c0 -73 5 -118 60 -118h314c1 55 9 155 22 300c-100 -9 -190 -23 -268 -46c-38 -11 -56 -17 -88 -12c-27 -49 -40 -91 -40 -124zM816 378c33 0 54 -25 54 -66c0 -46 -49 -154 -142 -320
c-17 -31 -44 -46 -72 -46c-39 0 -64 28 -64 72c0 49 50 146 136 294c23 40 49 66 88 66zM1054 344c35 0 58 -23 58 -62c0 -32 -25 -107 -66 -226c-19 -29 -43 -45 -72 -48c-37 5 -62 29 -62 72c0 35 14 104 54 202c16 41 51 62 88 62z" /><glyph glyph-name="uni5149" unicode="&#x5149;" d="M966 868c-26 223 -72 451 -72 668c0 60 25 95 64 98c68 6 82 -61 88 -122c22 -235 44 -431 64 -636c208 9 441 22 698 22c76 0 120 -24 120 -66c0 -44 -25 -71 -72 -72c-167 -5 -321 -7 -462 -12c-3 -13 -7 -29 -14 -46c-67 -172 -100 -307 -100 -406
c0 -96 17 -159 48 -192c41 -45 104 -70 192 -70c35 0 123 20 254 80c55 25 121 4 122 -50c0 -44 -22 -71 -66 -80c-132 -71 -207 -96 -332 -96c-255 0 -360 181 -360 458c0 113 30 245 90 396c-203 -11 -374 -23 -514 -38c-9 -29 -26 -62 -44 -100
c-86 -180 -157 -393 -216 -636c-11 -45 -30 -72 -62 -72c-48 0 -72 31 -72 80c0 139 169 604 226 706c-117 -12 -231 -26 -340 -26c-51 0 -80 27 -80 72c0 36 30 57 90 66c71 11 151 23 240 32c-124 237 -186 403 -186 496c0 78 111 80 130 22c50 -154 104 -295 176 -416
c19 -32 37 -59 46 -86c105 9 220 18 344 26zM1662 1482c35 0 54 -25 58 -66c-7 -59 -62 -202 -176 -424c-17 -33 -45 -47 -74 -48c-37 7 -64 30 -64 72c0 68 61 201 168 400c22 41 51 66 88 66z" /><glyph glyph-name="uni5199" unicode="&#x5199;" d="M1654 978c34 128 109 311 -2 404c-40 33 -106 52 -198 50c-367 -6 -622 -72 -966 -150c-57 -13 -96 -25 -138 -26c-9 -92 -14 -201 -14 -328c0 -49 -26 -80 -66 -80c-53 0 -80 41 -80 122c0 168 14 325 50 470c12 47 41 71 80 72c51 1 75 -53 54 -106
c129 41 272 72 428 98c271 45 435 75 652 74c128 0 235 -16 302 -72c93 -77 120 -148 116 -274c-3 -77 -17 -163 -58 -254c-17 -37 -48 -58 -88 -58c-44 0 -68 22 -72 58zM1368 568c-120 0 -740 -119 -738 -102c-100 0 -150 48 -150 144c0 190 80 436 126 590
c20 36 47 56 80 56c47 0 73 -23 74 -64c1 -37 -25 -89 -32 -126c261 -1 482 -7 662 -16c45 -12 72 -36 72 -72c0 -47 -37 -72 -96 -72c-274 0 -500 4 -678 16c-20 -82 -66 -191 -66 -280c0 -21 14 -32 42 -32c19 0 65 4 138 18c302 56 493 86 574 86c196 0 361 -90 358 -280
c-1 -79 -44 -262 -142 -546c-13 -37 -40 -55 -72 -56c-86 -2 -80 82 -56 154c85 263 129 415 128 458c-2 99 -117 124 -224 124zM1302 328c83 0 130 -25 130 -72c0 -43 -27 -68 -72 -70c-316 -10 -555 -24 -716 -52c-99 -17 -194 -36 -286 -36c-56 0 -88 29 -88 78
c0 36 33 51 96 64c192 41 503 88 936 88z" /><glyph glyph-name="uni51FA" unicode="&#x51FA;" d="M872 714c-346 19 -666 56 -666 390c0 107 63 229 186 370c21 23 43 38 70 38c89 0 89 -89 34 -142c-97 -141 -146 -235 -146 -282c0 -81 37 -142 112 -180c58 -29 199 -46 420 -54c16 211 35 444 62 700c5 48 30 80 72 80c44 0 72 -29 72 -80c0 -47 -47 -464 -62 -704
c52 -1 107 -2 166 -2c229 0 369 29 424 84c36 36 56 87 56 156c0 60 -56 167 -176 314c-41 51 -48 126 40 126c31 0 57 -13 80 -38c132 -145 198 -270 198 -374c0 -136 -31 -219 -110 -294c-113 -107 -420 -127 -688 -114c-12 -211 -20 -427 -24 -650c61 -1 128 -2 200 -2
c229 0 369 25 424 68c36 29 56 68 56 124c0 55 -21 149 -68 282c-21 60 -13 119 58 118c32 0 59 -13 80 -38c54 -156 72 -252 72 -386c0 -89 -39 -155 -110 -208c-189 -143 -681 -106 -1026 -86c-149 9 -257 30 -322 58c-117 49 -158 101 -158 214c0 109 35 236 114 374
c17 29 43 42 70 42c87 0 78 -81 48 -146c-64 -142 -86 -241 -86 -286c0 -44 36 -80 110 -100c57 -16 189 -22 394 -26c0 181 8 399 24 654z" /><glyph glyph-name="uni5218" unicode="&#x5218;" d="M256 1088c-76 1 -120 16 -120 88c0 35 25 56 70 58c164 8 318 17 462 30c-67 87 -124 151 -172 192c-21 18 -34 41 -34 72c0 35 22 58 56 58c44 0 85 -23 126 -66c46 -48 85 -90 118 -126c36 -39 59 -75 66 -112c116 12 221 48 332 48c53 0 81 -25 80 -66
c-1 -37 -24 -63 -64 -72c-171 -38 -647 -107 -920 -104zM350 -38c-17 1 126 292 234 490c-65 44 -134 88 -202 140c-44 34 -47 123 26 122c48 0 133 -38 256 -114c120 221 206 364 248 432c18 29 41 48 80 48c66 0 78 -80 46 -136c-89 -158 -174 -297 -246 -424
c92 -61 198 -135 318 -222c48 -33 41 -122 -22 -122c-48 0 -100 16 -154 48c-74 44 -149 93 -228 146c-93 -171 -167 -305 -210 -408c-19 -45 -45 -74 -88 -74c-36 0 -55 27 -58 74zM1264 1112c67 5 81 -64 88 -120c27 -214 54 -410 86 -588c16 -89 34 -175 -48 -186
c-68 5 -83 64 -94 136c-34 224 -62 446 -98 662c3 60 25 92 66 96zM1638 1536c41 0 68 -27 80 -80c32 -135 82 -1261 80 -1358c-3 -79 -24 -122 -64 -122c-55 0 -87 32 -88 88c-11 537 -25 851 -56 1222c-7 86 -16 148 -16 188c0 41 21 62 64 62z" /><glyph glyph-name="uni524D" unicode="&#x524D;" d="M600 1616c43 0 69 -25 80 -72c21 -92 54 -165 96 -226c141 5 299 9 472 12c3 40 37 115 104 224c25 68 134 94 144 0c-4 -33 -37 -107 -98 -222c109 3 224 4 344 4c77 0 122 -22 122 -64c0 -43 -26 -72 -72 -72c-732 -8 -997 -46 -1544 -46c-52 0 -80 25 -80 72
c0 35 29 56 88 62c99 10 219 17 360 24c-26 43 -82 188 -82 232s24 72 66 72zM374 194c16 -63 52 -162 50 -218c-2 -82 -114 -79 -146 -24c-41 136 -72 309 -72 520c0 173 3 315 10 426c26 55 90 74 130 34c138 71 230 100 368 100c96 0 183 -25 258 -78
c102 -71 137 -213 132 -400s-69 -512 -138 -642c-15 -29 -33 -48 -62 -48c-44 0 -68 25 -72 66c45 109 81 227 104 372c34 214 39 457 -64 550c-37 34 -101 46 -182 46c-44 0 -121 -25 -232 -74c-38 -17 -73 -26 -102 -30c-1 -28 -3 -58 -2 -88c155 -5 285 -23 390 -50
c40 -10 62 -31 62 -64c0 -39 -33 -62 -88 -62c-147 0 -269 19 -366 44c-3 -84 -3 -159 4 -236c144 12 240 27 288 40c56 15 139 6 138 -42c-1 -43 -26 -82 -80 -96c-131 -34 -243 -42 -328 -46zM1294 912c68 6 85 -61 88 -118c14 -245 42 -443 42 -658
c0 -46 -25 -72 -64 -72c-66 0 -79 55 -84 130c-15 212 -46 419 -46 622c0 60 24 92 64 96zM1688 1096c36 0 59 -24 72 -72c16 -60 30 -212 48 -454c23 -306 40 -503 40 -594c0 -72 -24 -112 -64 -112c-49 0 -78 30 -80 82c-10 288 -27 505 -38 652c-17 234 -42 281 -42 434
c0 43 21 64 64 64z" /><glyph glyph-name="uni52BF" unicode="&#x52BF;" d="M1390 824c-75 0 -145 32 -210 54c-32 -71 -57 -131 -76 -180c-16 -41 -45 -64 -88 -64c-32 0 -49 24 -50 64c0 20 27 94 82 222c-29 11 -59 22 -90 34c-24 20 -38 43 -38 70c0 36 25 56 64 56c24 0 65 -8 124 -24c32 71 61 134 86 190c-92 -23 -147 -36 -164 -36
c-79 -2 -78 101 -30 134c103 36 195 63 278 80c36 75 65 128 82 162c15 29 37 48 72 48c37 0 59 -21 64 -56c-3 -38 -26 -95 -44 -126c105 10 195 9 252 -48c69 -68 81 -149 40 -252c-58 -147 -98 -217 -98 -334c0 -16 11 -24 34 -24c7 -6 123 35 160 38
c62 6 68 -112 24 -134c-55 -28 -116 -42 -184 -42c-123 0 -188 56 -184 168c6 163 64 274 120 448c0 33 -27 50 -80 50c-37 0 -91 -9 -162 -26c-51 -105 -95 -199 -132 -282c51 -17 109 -37 174 -60c45 -38 43 -130 -26 -130zM944 460c216 17 471 6 606 -60
c123 -60 160 -108 160 -226c0 -85 -70 -243 -110 -286c-24 -25 -45 -37 -64 -38c-80 -4 -99 65 -62 118c63 89 92 163 92 216c0 61 -32 101 -96 118c-148 38 -422 47 -614 12c-97 -163 -167 -298 -218 -402c-21 -42 -56 -62 -96 -62c-35 0 -54 22 -54 62c0 32 15 77 46 134
c45 85 87 162 126 230c-91 -21 -187 -44 -286 -78c-50 -17 -87 -30 -112 -30c-86 -2 -92 83 -30 114c122 61 348 127 520 154c33 56 61 104 88 140c35 46 144 53 144 -22c0 -24 -13 -55 -40 -94zM618 1270c95 -2 302 26 302 -60c0 -44 -27 -70 -72 -72
c-79 -3 -149 -2 -212 -2c9 -69 18 -134 26 -194c72 19 131 30 178 28c35 -1 54 -24 54 -64c0 -32 -15 -59 -46 -82c-55 -11 -110 -22 -166 -34c6 -61 23 -130 20 -164c-4 -45 -25 -72 -64 -72c-74 0 -78 75 -96 150c-4 18 -5 37 -6 54c-59 -12 -118 -24 -178 -36
c-47 -29 -131 -19 -126 46c1 28 14 49 38 64c84 25 167 49 248 72c-11 76 -21 152 -30 228c-84 -5 -167 -10 -248 -10c-52 0 -80 26 -80 70c0 36 29 58 88 64c57 6 131 9 220 12c-9 77 -30 153 -30 230c0 60 25 91 66 94c66 5 83 -64 88 -118c7 -72 18 -140 26 -204z" /><glyph glyph-name="uni5343" unicode="&#x5343;" d="M880 1316c-169 -30 -413 -87 -560 -90c-47 0 -72 21 -72 62c0 40 21 71 64 80c699 141 1147 210 1342 210c48 0 72 -25 72 -66c0 -36 -20 -65 -64 -72c-239 -39 -451 -68 -634 -100c14 -192 18 -393 28 -572c207 8 439 18 696 18c76 0 120 -22 120 -64
c0 -44 -26 -73 -72 -74c-285 -8 -531 -11 -738 -20c12 -227 34 -470 34 -682c0 -47 -25 -71 -64 -74c-93 13 -80 91 -88 204c-13 182 -17 365 -26 546c-247 -17 -481 -54 -720 -54c-52 0 -80 27 -80 72c0 35 29 58 88 66c173 24 408 41 704 54c-11 188 -21 373 -30 556z" /><glyph glyph-name="uni534A" unicode="&#x534A;" d="M954 410c-285 -3 -480 -74 -676 -74c-55 0 -88 26 -88 72c0 35 24 61 66 72c127 33 360 53 696 68c-2 177 -8 295 -8 434c-250 -9 -470 -38 -616 -38c-49 0 -80 21 -80 64c0 41 27 72 80 80c74 11 157 13 246 18c-11 8 -24 17 -32 32c-102 181 -150 307 -150 374
c0 45 22 74 62 74c41 0 70 -19 80 -50c34 -101 72 -193 120 -276c34 -56 57 -97 24 -148c82 3 174 7 262 12c-3 179 -11 302 -12 430c0 41 21 62 64 62c40 0 71 -26 80 -80c10 -63 11 -199 16 -406c81 1 165 3 252 4c-10 36 2 64 20 100c64 121 127 228 190 320
c51 49 146 42 146 -34c0 -24 -15 -49 -34 -80c-57 -92 -113 -195 -176 -304c56 0 112 2 168 2c98 0 147 -35 146 -80c-1 -40 -29 -66 -80 -66c-239 0 -448 -2 -628 -6c3 -142 6 -306 10 -432c173 7 369 14 586 14c96 0 152 -24 152 -72c0 -44 -26 -72 -72 -72
c-264 0 -485 -3 -664 -8c5 -196 9 -335 8 -416c-1 -77 -25 -120 -66 -120c-53 0 -86 32 -88 88c-5 164 -3 311 -4 442z" /><glyph glyph-name="uni534E" unicode="&#x534E;" d="M974 744c70 5 84 -66 88 -126c5 -71 13 -138 18 -202c401 -16 633 -26 696 -30c51 -17 80 -44 80 -80c0 -47 -35 -74 -88 -74c-112 0 -337 7 -674 20c6 -110 21 -231 24 -332c3 -92 -124 -104 -144 -24c-25 103 -23 249 -36 362c-191 9 -411 15 -660 32
c-57 4 -88 33 -88 72c0 52 37 80 104 80c85 0 295 -7 630 -20c-7 76 -20 149 -20 220c0 64 25 98 70 102zM568 1346c46 -224 93 -437 142 -648c-3 -45 -27 -72 -72 -72c-47 0 -77 25 -88 72c-72 318 -113 524 -128 616c-79 -17 -127 -26 -144 -26c-45 0 -72 21 -72 64
c0 48 27 83 72 104c289 64 460 98 512 98c56 0 88 -27 88 -72c0 -35 -25 -66 -72 -80c-91 -27 -171 -41 -238 -56zM1070 1134c-102 4 -254 -38 -246 84c1 33 25 51 70 54c71 4 139 8 204 12c23 97 59 195 108 294c9 48 34 72 74 72c60 0 94 -68 54 -124
c-33 -80 -59 -155 -78 -226c157 17 306 32 438 68c69 19 181 30 178 -46c-2 -40 -25 -62 -66 -74c-65 -19 -410 -88 -586 -102c-9 -57 -14 -111 -14 -160c3 -150 71 -226 226 -226c39 0 137 25 288 88c57 24 136 26 136 -46c0 -44 -23 -67 -58 -80
c-205 -75 -269 -104 -396 -104c-101 0 -186 33 -258 96c-82 71 -94 261 -74 420z" /><glyph glyph-name="uni53D1" unicode="&#x53D1;" d="M942 1658c70 0 76 -69 50 -130c-56 -131 -105 -255 -152 -370c241 29 463 57 736 108c80 15 133 22 158 22c49 0 80 -20 80 -62c0 -39 -32 -65 -88 -80c-186 -51 -674 -111 -948 -140c-48 -120 -91 -232 -130 -336c7 4 12 7 16 10c271 103 431 168 632 168
c128 0 233 -11 302 -56c101 -66 126 -104 120 -212c-3 -49 -34 -107 -100 -174c-44 -45 -115 -104 -214 -176c125 -39 265 -80 418 -124c43 -23 64 -52 64 -88c-2 -71 -83 -70 -144 -50c-184 61 -347 109 -486 154c-117 -85 -261 -178 -424 -290c-53 -36 -130 -33 -130 42
c0 36 21 61 50 80c127 83 238 158 334 222c-160 55 -285 96 -368 136c-30 15 -43 46 -46 82c9 71 99 59 160 30c89 -42 227 -83 404 -140c136 95 227 162 272 204c82 78 100 144 -12 190c-51 21 -119 28 -200 28c-85 0 -259 -43 -518 -140c-57 -21 -141 -34 -166 14
c-85 -229 -149 -415 -196 -554c-14 -42 -45 -64 -88 -64c-32 0 -50 24 -50 64c0 45 70 256 212 630c48 126 91 238 128 338c-220 -13 -438 7 -428 222c2 56 54 149 130 288c42 77 143 114 152 -6c0 -11 -7 -32 -24 -64c-70 -132 -106 -210 -106 -234c0 -79 229 -63 336 -56
c91 231 155 385 192 464c15 32 39 50 72 50zM1416 1624c45 0 98 -30 146 -90c38 -48 57 -94 60 -132c6 -78 -110 -95 -144 -34c-25 45 -53 81 -78 110c-29 23 -48 51 -48 84c0 40 23 62 64 62z" /><glyph glyph-name="uni53D8" unicode="&#x53D8;" d="M1336 1248c11 -187 30 -338 30 -504c0 -46 -25 -72 -64 -72c-54 0 -76 47 -80 116c-10 165 -38 326 -38 484c0 9 1 18 2 26c-115 -1 -218 -3 -310 -6c-12 -100 -65 -304 -158 -612c-17 -29 -38 -46 -62 -46c-40 0 -64 25 -64 64c0 101 51 297 144 588
c-151 -6 -295 -14 -432 -14c-57 0 -88 29 -88 80c0 36 32 61 96 66c169 13 403 17 700 22c-35 39 -65 68 -92 88c-42 33 -31 123 30 122c31 0 58 -16 86 -42c32 -30 59 -56 82 -78c31 -30 50 -57 50 -88c172 3 361 6 566 6c83 0 130 -24 130 -70c0 -44 -27 -71 -72 -72
c-171 -4 -325 -3 -464 -6c5 -19 8 -36 8 -52zM392 1088c39 49 126 45 126 -22c0 -24 -6 -50 -22 -74c-58 -89 -121 -183 -184 -286c-27 -21 -51 -34 -72 -34c-65 0 -68 85 -34 138c67 104 125 199 186 278zM1536 1096c41 -1 143 -83 320 -230c53 -44 47 -133 -26 -136
c-21 0 -44 9 -68 26c-76 53 -154 128 -250 206c-49 40 -62 136 24 134zM462 282c106 0 464 -76 602 -92c56 36 105 76 152 112c94 73 144 121 144 152c0 9 -12 22 -40 26c-174 25 -329 0 -512 -46c-146 -36 -231 -56 -258 -56c-41 0 -62 21 -62 54c0 43 20 75 62 88
c271 83 433 114 650 114c92 0 163 -13 214 -40c81 -44 112 -67 106 -140c13 -79 -168 -242 -254 -300c343 -57 544 -91 598 -112c35 -14 54 -44 54 -80c0 -40 -29 -63 -78 -66c-23 -1 -66 7 -130 20c-176 36 -383 75 -622 116c-97 -61 -204 -122 -320 -182
c-47 -39 -148 -35 -146 38c1 27 15 51 42 74c73 36 141 71 204 106c-125 21 -258 39 -396 62c-58 9 -87 41 -90 88c7 39 33 64 80 64z" /><glyph glyph-name="uni53EA" unicode="&#x53EA;" d="M304 1410c22 50 92 76 134 36c121 69 332 98 570 98c259 0 454 -40 576 -132c163 -123 208 -225 208 -426c0 -141 -46 -251 -132 -334c-137 -133 -317 -202 -548 -202c-264 0 -539 10 -694 82c-156 73 -212 190 -212 388c0 175 32 338 98 490zM1506 1302
c-165 135 -697 142 -946 40c-56 -23 -90 -37 -132 -36c-52 -133 -78 -279 -78 -432c0 -116 49 -193 148 -230c150 -56 365 -62 582 -60s371 48 464 142c67 69 102 157 102 266c0 125 -44 231 -140 310zM488 336c36 47 140 54 142 -24c0 -13 -9 -33 -26 -60
c-80 -129 -137 -232 -174 -306c-21 -42 -54 -63 -94 -66c-72 10 -65 82 -28 144c84 143 134 253 180 312zM1504 344c41 0 145 -96 318 -280c24 -25 42 -49 42 -80c0 -43 -29 -72 -72 -72c-21 0 -45 11 -70 34c-72 65 -151 151 -244 248c-25 27 -46 53 -46 88
c0 39 28 62 72 62z" /><glyph glyph-name="uni53EF" unicode="&#x53EF;" d="M1720 1368c28 -521 72 -951 72 -1408c0 -46 -26 -72 -66 -72c-35 0 -59 22 -72 58c-4 32 -12 82 -16 152c-24 440 -45 872 -72 1296c1 7 2 13 2 20c-381 -7 -679 -16 -894 -34c-160 -13 -313 -28 -458 -28c-52 0 -80 27 -80 72c0 36 29 59 88 66c314 35 832 64 1552 64
c76 0 118 -23 120 -64c5 -83 -96 -77 -182 -74c4 -15 6 -31 6 -48zM816 -96c-326 0 -584 90 -584 424c0 211 48 438 150 680c31 74 69 87 124 54c125 49 197 68 300 68c303 0 592 -224 592 -506v-78c10 -350 -238 -642 -582 -642zM1256 610c0 282 -362 466 -638 330
c-56 -28 -95 -39 -114 -42c-91 -266 -132 -439 -130 -616c3 -205 223 -234 432 -234c289 0 450 254 450 562z" /><glyph glyph-name="uni5403" unicode="&#x5403;" d="M340 1216c42 24 97 40 156 40c80 0 141 -37 186 -108c60 -94 81 -227 78 -388c-3 -152 -22 -276 -74 -368c-72 -126 -139 -180 -272 -176c-81 2 -145 41 -198 118c-45 65 -66 186 -64 330c2 127 29 295 88 504c21 39 52 56 100 48zM582 1050c-43 88 -120 95 -196 24
c-7 -5 -12 -9 -16 -12c-51 -191 -76 -331 -76 -422c0 -96 13 -167 36 -214s60 -72 116 -72c61 0 104 49 136 136c33 88 51 456 0 560zM950 1586c44 53 138 53 138 -32c0 -20 -13 -45 -30 -74c102 -7 731 -64 750 -70c51 -15 80 -44 80 -80c0 -42 -31 -66 -80 -66
c-104 0 -377 24 -818 72c-39 -89 -77 -187 -104 -294c-13 -51 -33 -80 -70 -80c-53 0 -80 33 -80 88c0 51 20 135 66 250c62 155 116 247 148 286zM1276 -80c-117 0 -268 87 -268 194c0 80 41 175 126 284c66 85 212 219 440 398c32 25 50 43 50 60c0 15 -12 27 -36 32
c-216 42 -464 -54 -618 -118c-52 -22 -139 -22 -138 40c1 39 18 70 54 88c138 69 390 144 582 144c155 0 308 -50 308 -186c0 -57 -35 -112 -102 -166c-206 -165 -339 -290 -404 -372c-73 -92 -110 -157 -110 -196c0 -19 12 -34 38 -42c74 -23 183 -20 276 8
c60 18 152 50 274 102c26 11 47 15 60 20c44 -3 72 -22 72 -58c0 -33 -14 -63 -40 -80c-146 -94 -356 -152 -564 -152z" /><glyph glyph-name="uni5408" unicode="&#x5408;" d="M912 1586c55 42 141 36 134 -46c32 -7 78 -25 142 -46c386 -130 603 -210 652 -238c33 -19 56 -43 56 -80c0 -39 -30 -64 -82 -64c-12 0 -37 8 -74 24c-179 77 -416 167 -716 258c-32 10 -57 19 -70 36c-131 -108 -263 -219 -396 -334c413 -5 766 -23 1050 -64
c42 -6 64 -30 64 -62c0 -47 -39 -72 -98 -72c-416 0 -761 22 -1032 64c-40 6 -59 33 -62 68c-68 -57 -137 -114 -202 -174c-26 -24 -48 -40 -72 -40c-71 0 -76 91 -38 146c247 239 502 439 744 624zM538 760c96 26 210 34 340 34c312 0 541 -35 688 -106
c148 -71 223 -159 226 -266c7 -374 -159 -518 -570 -526c-256 -5 -539 -2 -702 66c-173 72 -234 180 -234 372c0 131 40 266 114 410c17 33 39 54 72 58c35 -4 57 -18 66 -42zM862 648c-140 0 -245 -15 -316 -46c-23 -9 -39 -15 -50 -16c-44 -108 -66 -199 -66 -274
c0 -107 53 -171 150 -214c94 -42 656 -78 880 -24c121 29 186 154 186 304c0 85 -44 148 -134 184c-146 59 -363 86 -650 86z" /><glyph glyph-name="uni540E" unicode="&#x540E;" d="M1704 1608c48 0 72 -23 72 -64c0 -35 -20 -63 -64 -70c-455 -73 -811 -129 -1066 -180c-123 -25 -213 -37 -272 -38v-178c288 44 709 82 1338 82c80 0 128 -25 128 -72c0 -44 -25 -71 -72 -72c-435 -10 -763 -21 -986 -46c-141 -16 -277 -33 -408 -32v-978
c-3 -45 -26 -72 -70 -72c-47 0 -76 25 -88 72c4 767 8 1225 8 1376c0 72 72 91 118 58l16 8c701 135 1150 206 1346 206zM646 708c121 82 329 108 546 108c215 0 376 -34 476 -112c121 -95 154 -190 154 -360c0 -104 -29 -197 -92 -274c-86 -105 -270 -159 -546 -166
c-195 -4 -402 0 -522 58c-132 64 -180 163 -174 330c4 117 8 243 38 372c12 51 73 73 120 44zM1176 672c-193 0 -335 -31 -430 -86c-42 -24 -66 -33 -86 -32c-20 -113 -30 -207 -30 -280c0 -89 37 -145 104 -180c95 -50 562 -50 728 -16c129 26 218 135 218 284
c0 97 -27 170 -86 212c-95 67 -235 98 -418 98z" /><glyph glyph-name="uni5450" unicode="&#x5450;" d="M372 1234c39 12 85 15 132 14c67 0 118 -35 158 -102c51 -84 66 -212 66 -360c0 -164 -21 -297 -72 -396c-70 -136 -134 -193 -264 -188c-76 3 -139 44 -190 130c-43 71 -60 210 -58 366c1 124 35 289 112 494c17 44 68 62 116 42zM560 1050c-30 91 -109 61 -182 32
c-61 -183 -92 -319 -92 -410c0 -112 13 -194 32 -248c21 -58 54 -89 106 -88c57 1 96 54 128 150c28 83 47 446 8 564zM1518 1342c233 -46 368 -199 368 -498c0 -276 -65 -685 -160 -876c-15 -30 -35 -48 -64 -48c-43 0 -66 24 -70 64c3 15 11 37 24 68
c70 157 126 497 126 706c0 200 -36 337 -114 400c-40 33 -99 48 -168 56c-48 -108 -91 -209 -128 -304c24 -4 48 -15 66 -36c63 -73 130 -183 208 -324c31 -56 14 -126 -48 -126c-31 0 -51 13 -62 34c-77 144 -149 255 -214 334c-65 -163 -115 -304 -156 -422
c-18 -52 -126 -78 -126 0c0 56 21 136 62 240c90 230 167 427 234 590c-80 -18 -229 -108 -332 -124c-20 -205 -25 -900 36 -1016c37 -70 38 -164 -42 -164c-39 0 -69 24 -88 72c-85 218 -75 939 -38 1288c5 52 31 79 72 80c53 1 75 -42 70 -106c140 78 265 119 386 122
c39 89 73 165 102 226c35 31 120 35 122 -24c2 -47 -30 -131 -66 -212z" /><glyph glyph-name="uni554A" unicode="&#x554A;" d="M430 282c-216 -9 -303 145 -294 390c5 120 29 281 88 482c19 33 47 48 90 46c30 28 82 49 132 48c174 -4 234 -165 234 -358c0 -172 -19 -310 -60 -414c-50 -127 -114 -191 -190 -194zM430 1112c-15 3 -63 -27 -84 -54c-51 -184 -76 -321 -76 -410c0 -76 15 -132 38 -172
c22 -39 59 -60 116 -60c43 0 75 55 96 158c15 72 23 193 22 362c-1 103 -16 174 -112 176zM900 314c13 -110 36 -233 36 -338c0 -45 -22 -72 -58 -72c-47 0 -83 21 -88 64c-67 552 -102 884 -102 994c0 45 23 70 64 70c47 0 74 -26 80 -78c18 -172 34 -340 50 -504h84
c57 -1 116 74 114 134c-5 84 -72 134 -160 144c-64 7 -89 112 -26 138c57 41 103 90 140 142c29 41 46 80 46 120c0 80 -40 160 -132 160c-51 0 -127 -17 -224 -62c-52 -24 -124 -20 -124 38c0 31 17 55 48 72c111 64 205 96 284 96c172 0 290 -158 290 -304
c0 -96 -59 -200 -176 -312c88 -44 143 -97 164 -160c11 69 26 139 48 204c-7 39 12 63 44 84c150 55 266 53 340 -90c38 -75 62 -173 62 -300c0 -161 -15 -277 -44 -348c-44 -105 -112 -158 -204 -158c-183 0 -274 73 -272 272c0 41 1 83 2 124c-55 -87 -153 -150 -286 -130
zM1230 1592c42 2 613 -41 618 -48c45 -15 70 -38 70 -70c0 -58 -51 -69 -116 -64c4 -13 6 -27 6 -42c0 -386 71 -737 106 -1056c10 -90 22 -158 22 -206c0 -92 -120 -91 -136 -18c-7 31 -22 76 -28 138c-40 397 -75 787 -118 1168c1 9 3 17 4 24c-108 8 -257 17 -444 38
c-47 5 -72 31 -72 64c0 47 32 69 88 72zM1318 320c1 -105 29 -134 130 -134c45 0 76 28 94 84c29 89 38 415 -2 500c-39 85 -54 79 -152 54c-44 -200 -72 -375 -70 -504z" /><glyph glyph-name="uni561B" unicode="&#x561B;" d="M174 1072c15 87 39 133 96 126v2c99 44 239 35 282 -50c32 -63 54 -183 54 -364c0 -150 9 -357 -38 -444c-42 -78 -116 -102 -228 -102c-67 0 -112 34 -148 96c-30 51 -41 199 -40 326c2 172 5 309 22 410zM440 1050c-15 47 -63 28 -110 16c-26 -124 -38 -291 -36 -456
c0 -89 5 -151 14 -184c16 -62 113 -50 134 -2c26 59 19 246 20 352c0 132 -6 224 -22 274zM1226 1458c-17 34 -43 56 -42 104c1 44 32 68 88 72c65 -14 109 -111 132 -184c236 -13 373 -22 410 -26c47 -15 74 -39 74 -72c0 -40 -29 -64 -74 -64c-121 0 -433 17 -936 50
c-8 -63 -30 -202 -66 -418c49 0 97 -1 144 -4c-4 80 -12 159 -12 238c0 55 23 84 64 88c58 5 78 -58 80 -112c2 -76 7 -150 10 -222c92 -16 230 6 238 -84c-5 -45 -37 -72 -96 -72c-48 0 -93 3 -136 4c5 -115 11 -225 16 -332c35 1 91 -20 198 -62c9 -8 16 -15 20 -20
c53 112 106 214 158 306c8 7 15 12 22 16c-5 85 -11 169 -18 252c-88 4 -167 8 -236 20c-42 8 -64 32 -64 64c0 41 28 66 80 66c73 0 143 -3 208 -6c-3 48 -10 94 -10 140c0 55 24 88 66 88c104 0 74 -144 88 -236c65 -5 126 -10 182 -20c42 -7 66 -30 66 -62
c0 -92 -154 -61 -240 -62c11 -164 22 -320 34 -468c31 -9 89 -33 174 -70c25 -23 40 -47 40 -74c0 -39 -27 -60 -66 -64c-55 6 -92 31 -140 50c7 -96 22 -259 22 -336c0 -86 -114 -97 -130 -26c-30 138 -27 341 -40 498c-64 -132 -130 -271 -198 -418
c-48 -47 -125 -43 -130 34c11 68 57 131 78 192c-58 11 -99 33 -158 54c4 -108 16 -278 16 -368c0 -85 -113 -91 -126 -24c-23 118 -19 292 -28 428c-45 -75 -92 -153 -140 -236c-43 -37 -103 -46 -124 6c-8 -83 12 -218 -76 -214c-44 2 -71 33 -72 88
c-4 330 55 795 160 1390c-32 11 -48 31 -48 60c0 45 30 72 86 72c61 0 212 -8 452 -24zM728 154c70 137 148 266 222 366c8 11 18 16 26 20c-4 76 -8 151 -12 224c-65 5 -123 13 -176 22c-28 -203 -48 -413 -60 -632z" /><glyph glyph-name="uni56DE" unicode="&#x56DE;" d="M858 -70c-372 0 -660 209 -660 590c0 320 24 703 122 936c23 56 115 66 144 16c152 61 365 113 568 106c377 -12 605 -148 704 -452c65 -200 96 -402 94 -630c-3 -362 -107 -446 -432 -516c-205 -44 -346 -50 -540 -50zM350 546c0 -292 190 -474 490 -474
c208 0 361 7 566 54c212 49 269 114 274 378c4 213 -21 368 -88 570c-43 131 -114 216 -202 272c-142 91 -428 109 -640 62c-71 -16 -163 -54 -278 -110c-13 -11 -26 -17 -38 -20c-60 -232 -84 -464 -84 -732zM920 416c-249 0 -408 56 -408 318c0 96 22 194 56 298
c17 52 53 75 104 58c131 80 365 77 492 -14c99 -71 134 -171 130 -324c-5 -203 -146 -336 -374 -336zM894 560c185 0 256 49 256 226c0 73 -19 130 -56 170c-80 55 -217 62 -332 10c-28 -13 -51 -27 -72 -32c-14 -73 -35 -167 -34 -212c5 -142 82 -162 238 -162z" /><glyph glyph-name="uni56FE" unicode="&#x56FE;" d="M374 1456c27 45 80 72 128 44c141 65 366 92 616 92c252 0 440 -80 560 -242c134 -181 200 -391 200 -630c0 -254 -23 -450 -140 -590c-149 -178 -344 -272 -596 -272h-184c-239 0 -428 51 -568 154c-170 125 -236 374 -230 706c5 263 74 507 214 738zM1110 -8
c403 -3 624 201 624 592c0 265 -40 484 -136 646c-91 154 -259 226 -488 226c-183 0 -354 -20 -508 -76c-48 -17 -83 -37 -112 -42c-7 -13 -18 -25 -26 -40c-109 -202 -160 -423 -160 -656c0 -263 53 -436 162 -514c128 -92 285 -136 468 -136h176zM618 858
c-24 -48 -57 -106 -114 -106c-37 0 -58 22 -58 58c0 24 16 58 44 104c119 198 207 339 270 422c35 44 132 48 134 -22c0 -19 -11 -43 -34 -72c113 31 193 46 296 46c152 0 276 -91 276 -234c0 -48 -41 -141 -78 -188c135 -28 218 -44 246 -56c34 -14 54 -41 54 -74
c0 -39 -29 -60 -80 -64c-108 13 -216 49 -334 68c-58 -52 -127 -102 -192 -150c92 -17 233 -54 422 -110c45 -34 48 -126 -22 -126c-36 0 -73 5 -112 14c-116 27 -247 62 -394 106c-11 8 -19 17 -24 26c-109 -73 -231 -136 -350 -210c-59 -37 -138 -29 -138 38
c0 27 8 53 32 66c273 153 427 247 598 380c-125 25 -263 49 -412 74c-12 2 -22 6 -30 10zM1280 1054c-17 131 -193 106 -314 72c-71 -20 -152 -49 -238 -82c-13 -21 -25 -40 -36 -56c149 -21 372 -69 498 -90c40 44 93 129 90 156zM774 312c61 0 219 -42 474 -126
c45 -38 43 -130 -26 -130c-31 0 -65 5 -104 16c-109 31 -231 69 -366 114c-27 20 -42 43 -42 70c0 36 25 56 64 56z" /><glyph glyph-name="uni5730" unicode="&#x5730;" d="M390 362c-14 170 -28 400 -36 630c-56 3 -106 1 -148 8c-46 8 -68 37 -70 74c-6 89 127 72 212 70c-4 93 -6 157 -6 192c0 45 24 74 66 74c43 0 75 -27 80 -74c8 -69 5 -135 6 -198c51 -1 97 -1 136 -8c46 -9 72 -36 72 -72c0 -46 -37 -72 -96 -72c-39 0 -74 1 -106 2
c10 -229 20 -400 34 -582c41 17 78 52 122 52c49 0 80 -20 80 -58c0 -43 -33 -69 -88 -94c-161 -72 -287 -130 -386 -130c-64 0 -102 29 -102 80c0 91 165 76 230 106zM838 916c-29 -16 -66 -34 -94 -34c-48 0 -72 21 -72 62c0 35 19 60 56 80c51 27 101 53 150 74
c20 79 46 160 64 246c9 43 29 66 74 66c44 0 72 -27 72 -80c0 -37 -8 -92 -24 -164c93 28 181 43 262 44c19 172 32 287 40 344c16 29 43 45 82 46c65 1 77 -76 48 -134c-11 -92 -21 -178 -30 -258c199 -13 398 -156 398 -352c0 -163 -66 -310 -138 -398
c-19 -23 -37 -42 -64 -42c-69 0 -75 69 -42 130c66 122 98 221 98 294c0 150 -118 209 -266 222c-28 -268 -49 -472 -62 -612c-15 -45 -44 -72 -88 -72c-35 0 -53 27 -54 72c-6 -10 41 458 58 612c-84 -8 -178 -31 -282 -68c-63 -238 -112 -542 -112 -666
c0 -198 72 -305 256 -310c72 -2 363 70 616 70c49 0 80 -15 80 -46c0 -53 -25 -88 -72 -96c-317 -55 -481 -72 -664 -72c-87 0 -166 26 -234 82c-98 80 -131 240 -126 440c3 129 23 303 70 520z" /><glyph glyph-name="uni5757" unicode="&#x5757;" d="M1730 502c86 4 240 13 236 -60c-2 -44 -25 -71 -72 -72c-305 -6 -543 -8 -714 -16c-33 -163 -53 -300 -76 -408c-10 -47 -45 -72 -88 -72c-36 0 -58 27 -58 72c0 35 23 168 68 400c-76 -5 -149 -10 -220 -10c-51 0 -78 27 -78 72c0 36 29 60 88 66c66 7 145 10 236 14
c58 271 123 599 160 770c-83 -20 -173 -45 -264 -86c-42 -19 -101 -4 -100 38c1 33 15 59 46 78c56 32 242 102 352 122c17 77 31 136 40 176c16 29 43 48 80 48c68 0 76 -76 50 -136c-9 -22 -12 -45 -16 -68c145 11 258 -9 338 -88c71 -70 92 -148 92 -258
c0 -144 -58 -470 -100 -582zM1688 1092c4 165 -146 229 -316 200c-67 -311 -122 -577 -166 -800c111 4 235 7 374 8c50 165 103 402 108 592zM1440 224c59 0 213 -58 454 -190c30 -16 42 -45 42 -72c0 -81 -97 -74 -164 -44c-106 47 -228 97 -356 170c-58 33 -61 136 24 136
zM240 1080c23 0 70 -2 142 -6c-4 163 -8 272 -8 328c0 47 24 72 64 72c48 0 77 -26 80 -80c5 -110 5 -220 8 -328c124 -8 197 -13 218 -16c45 -16 69 -40 72 -72c-5 -41 -29 -66 -72 -66c-37 0 -109 3 -214 10c6 -224 13 -441 20 -658c95 16 139 48 224 48
c51 0 80 -17 80 -48c0 -43 -26 -81 -80 -96c-209 -58 -381 -88 -512 -88c-60 0 -94 27 -94 72c0 37 23 65 64 72c66 11 125 13 176 18c-8 279 -15 509 -20 690c-75 12 -237 -8 -236 76c1 47 31 71 88 72z" /><glyph glyph-name="uni57CE" unicode="&#x57CE;" d="M1110 840c243 13 269 -278 206 -502c-18 -64 -31 -109 -44 -136c-24 -23 -46 -34 -66 -34c-75 -3 -81 62 -58 118c42 103 58 186 58 246c0 72 -6 118 -18 138c-16 29 -38 44 -66 44c-55 1 -138 -17 -220 -46c-17 -197 -24 -404 -32 -620c-2 -51 -29 -80 -72 -80
s-70 32 -70 88c0 81 3 173 8 274c-4 -39 -30 -71 -80 -90c-171 -65 -310 -104 -416 -104c-60 0 -92 27 -96 74c4 35 25 59 62 72c71 8 132 17 184 28c-17 202 -16 431 -26 636c-90 15 -216 -6 -220 86c-4 84 137 62 216 62c-3 91 -10 179 -10 266c0 60 25 93 66 96
c69 5 86 -59 88 -120c2 -84 3 -167 6 -250c82 -12 208 5 208 -78c0 -46 -37 -72 -96 -72c-37 0 -74 3 -110 4c5 -214 8 -403 14 -598c41 18 83 42 130 42c51 0 77 -17 80 -46c11 227 33 513 72 838c-31 11 -48 30 -48 58c0 51 33 77 96 80c39 2 318 -17 516 -34
c-19 132 -29 220 -28 264s22 68 62 72c40 -4 65 -28 72 -72c16 -96 28 -187 40 -274c148 -11 237 -15 266 -22c51 -13 80 -43 80 -80c0 -40 -31 -64 -80 -64s-130 3 -242 10c43 -246 72 -407 126 -600c40 41 83 79 124 120c40 40 126 44 126 -24c0 -24 -9 -48 -22 -72
c-60 -63 -120 -127 -180 -192c36 -117 72 -240 126 -360c25 -56 6 -108 -50 -114c-43 5 -77 26 -96 66c-38 78 -70 171 -102 278c-96 -104 -192 -212 -292 -320c-44 -48 -124 -42 -126 34c0 23 6 47 24 70c113 143 229 272 344 392c-54 200 -100 435 -148 734
c-123 8 -271 19 -446 34c-4 -55 -16 -173 -36 -354c62 18 127 30 196 34zM1680 1608c44 0 94 -30 140 -90c38 -48 58 -94 60 -132c5 -72 -107 -83 -138 -26c-24 45 -52 81 -76 110c-55 31 -80 138 14 138z" /><glyph glyph-name="uni582A" unicode="&#x582A;" d="M606 1080c83 0 127 -25 130 -72c7 -107 -173 -62 -250 -80c-7 -181 -11 -371 -14 -568c69 21 114 32 134 32c52 -1 82 -23 82 -64c0 -33 -23 -64 -66 -80c-257 -98 -403 -142 -432 -142c-45 0 -72 21 -72 62c0 44 23 79 64 96c52 22 102 35 146 50c0 159 5 357 14 596
c-85 -17 -200 -29 -198 68c1 63 128 70 202 84c4 81 4 168 12 260c4 50 32 80 72 80c44 0 74 -29 74 -80c0 -37 -5 -119 -12 -246c35 1 73 4 114 4zM850 1404c4 84 -5 210 78 204c89 -7 72 -87 68 -200c160 4 359 7 596 8c7 82 -3 200 80 200c43 0 70 -28 70 -80
c0 -21 -2 -61 -6 -120h56c81 -1 123 -25 126 -72c6 -89 -105 -71 -190 -72c-16 -217 -22 -442 -24 -680c80 11 194 22 192 -54c-1 -40 -25 -64 -66 -72c-59 -11 -169 -23 -330 -38l-22 -108c0 -20 11 -30 34 -30c-7 -9 173 54 230 72c45 -3 72 -25 72 -66
c0 -35 -11 -59 -30 -72c-153 -57 -214 -80 -302 -80c-73 0 -155 77 -146 152l14 120c-57 -4 -116 -8 -176 -12c-19 -81 12 -255 -86 -252c-44 1 -72 32 -72 88c0 39 4 91 12 158l-112 -4c42 -51 -51 -165 -38 -226c0 -45 20 -79 60 -102c36 -21 97 -32 182 -32
c176 0 341 6 492 32c87 15 196 31 196 -48c0 -45 -22 -72 -66 -80c-226 -36 -422 -50 -636 -50c-197 0 -370 85 -370 284c0 49 27 153 60 220c-74 1 -124 12 -124 88c0 65 92 59 160 60c0 184 5 420 14 718c-92 -3 -198 -15 -198 78c0 65 118 72 202 68zM1584 1270
c-257 -2 -421 -3 -592 -8c-2 -38 -3 -90 -6 -132c141 -1 261 -4 358 -18c46 -7 69 -34 72 -70c-7 -45 -39 -72 -98 -72c-135 0 -247 6 -338 14c0 -43 -1 -86 -2 -130c128 3 251 -7 340 -22c47 -8 72 -35 72 -72c0 -46 -36 -72 -96 -72c-128 0 -234 11 -318 26
c-1 -56 -2 -113 -2 -170c211 8 405 19 584 34c0 176 9 407 26 692z" /><glyph glyph-name="uni5904" unicode="&#x5904;" d="M1104 896c0 -98 -84 -285 -192 -418c256 -132 574 -283 952 -460c44 -20 64 -52 64 -88c0 -71 -88 -75 -144 -48c-392 181 -715 339 -968 472c-149 -184 -299 -339 -450 -466c-20 -25 -49 -36 -88 -38c-69 -4 -76 83 -38 118c176 159 323 310 440 454
c-175 93 -313 173 -414 240c-12 -20 -23 -41 -34 -62c-27 -24 -51 -38 -72 -38c-75 0 -74 84 -42 144c166 311 315 592 480 822c40 56 138 43 138 -30c0 -23 -16 -45 -34 -74c-35 -54 -65 -112 -98 -168c152 40 315 43 404 -66c78 -96 96 -168 96 -294zM776 548
c93 121 174 275 174 356c0 131 -62 234 -162 234c-52 0 -132 -19 -240 -56c-21 -8 -39 -13 -54 -14l-156 -276c13 -4 25 -9 36 -16c101 -64 235 -140 402 -228zM1512 1474c0 -33 -37 -323 -48 -488c8 -3 15 -5 22 -8c55 -40 159 -99 312 -176c44 -23 66 -52 66 -88
c0 -70 -87 -79 -146 -50c-115 56 -202 110 -266 150c-7 -124 -5 -252 -12 -382c-3 -56 -35 -88 -80 -88c-49 0 -80 37 -80 98c0 244 22 588 72 1032c6 55 37 88 88 88c43 0 72 -32 72 -88z" /><glyph glyph-name="uni590F" unicode="&#x590F;" d="M190 -32c0 113 116 559 148 600c-114 72 -153 155 -148 304c4 129 27 266 88 408c15 36 44 56 80 56c58 0 77 -33 72 -92c143 44 314 69 504 76c-24 46 -54 79 -82 116c-181 8 -386 14 -612 30c-52 4 -80 29 -80 62c0 52 33 78 96 80c92 3 1548 -58 1566 -64
c52 -17 80 -42 80 -78c0 -42 -31 -64 -80 -64c-124 0 -377 8 -758 24c21 -39 34 -73 38 -104c240 4 437 -29 548 -110c127 -93 164 -180 164 -346c0 -96 -31 -181 -98 -250c-93 -96 -289 -146 -582 -150c-236 -4 -505 -1 -670 48c-24 -82 -51 -165 -70 -258
c462 115 720 170 992 168c96 -1 173 -16 226 -52c67 -46 90 -75 84 -150c8 -64 -78 -125 -164 -158c103 -16 200 -27 290 -38c42 -5 66 -26 66 -58c0 -49 -25 -78 -66 -80c-138 -5 -404 44 -558 76c-136 -41 -321 -113 -504 -132c-53 -5 -83 21 -88 64c4 35 26 55 64 64
c88 20 173 44 256 68c-109 28 -220 56 -328 94c-25 9 -39 30 -46 54c-79 -17 -177 -39 -256 -60c-22 -80 -9 -236 -100 -236c-48 0 -72 33 -72 88zM802 216c161 -40 314 -74 458 -102c68 23 133 49 196 74c37 15 56 25 56 34c0 49 -47 74 -140 74c-191 -2 -381 -45 -570 -80
zM1572 1088c-201 151 -877 98 -1076 16c160 -12 304 -35 432 -72c47 -14 71 -35 72 -62c-17 -104 -83 -73 -184 -46c-104 28 -257 49 -460 60c-7 -39 -11 -73 -12 -104c79 -5 615 -51 630 -56c36 -11 55 -29 58 -56c-4 -35 -23 -54 -58 -54c-79 0 -283 15 -612 46
c23 -49 69 -78 130 -106c103 -47 710 -66 942 -26c129 22 229 113 228 254c0 95 -31 162 -90 206z" /><glyph glyph-name="uni591A" unicode="&#x591A;" d="M816 1616c48 61 149 33 132 -52c174 19 359 55 464 -36c73 -63 88 -108 84 -202c-2 -49 -40 -105 -118 -170c-122 -103 -429 -281 -906 -556c-54 -31 -128 -34 -128 40c0 35 17 65 48 82c170 96 320 175 444 246c-87 54 -180 120 -286 200c-9 8 -17 17 -22 26
c-64 -53 -129 -106 -192 -162c-28 -24 -51 -40 -74 -40c-73 0 -86 98 -38 146c189 190 393 343 592 478zM1352 1342c1 69 -70 106 -148 106c-51 0 -261 -29 -414 -38c-48 -39 -96 -78 -144 -118c63 -32 160 -99 290 -204c15 -12 25 -27 32 -42c152 88 253 153 304 192
c53 41 80 75 80 104zM1406 1024c48 55 138 39 138 -32c0 -21 -12 -45 -32 -72c-49 -25 -99 -52 -150 -80c122 13 239 24 306 -44c61 -62 74 -114 74 -204c0 -65 -47 -134 -140 -206c-133 -103 -467 -261 -988 -498c-56 -25 -130 -10 -126 50c2 31 16 56 46 70
c166 75 314 140 442 200c-72 57 -151 130 -240 216c-16 16 -29 29 -36 44l-116 -68c-27 -25 -51 -38 -72 -38c-77 2 -78 92 -40 142c312 200 623 373 934 520zM1506 714c-79 0 -351 -74 -394 -74c-29 0 -50 10 -62 26c-72 -41 -145 -82 -218 -122c57 -40 139 -113 248 -216
c18 -17 31 -34 36 -54c189 92 323 166 400 222c56 40 84 78 84 114c1 53 -34 104 -94 104z" /><glyph glyph-name="uni5927" unicode="&#x5927;" d="M1734 1184c83 0 130 -25 130 -72c0 -43 -27 -69 -72 -70c-372 -5 -674 -5 -906 -12c-62 -116 -133 -249 -196 -386c21 -4 45 -12 70 -26c189 -110 544 -273 1062 -496c51 -22 75 -57 74 -96c-2 -79 -94 -87 -162 -58c-539 234 -904 412 -1096 528c-7 4 -11 8 -14 12
c-107 -224 -183 -414 -232 -570c-11 -35 -39 -54 -80 -58c-35 5 -56 29 -56 72c0 202 368 883 468 1076c-161 -8 -326 -12 -476 -12c-57 0 -88 29 -88 80c0 36 32 60 96 64c140 9 323 12 548 16c95 172 175 299 234 386c20 29 42 46 74 46c66 -1 80 -77 48 -126
c-59 -91 -125 -191 -192 -304c221 3 477 6 766 6z" /><glyph glyph-name="uni5934" unicode="&#x5934;" d="M1752 642c91 0 142 -29 142 -80c0 -49 -29 -81 -80 -82c-374 -7 -679 -11 -912 -24c-108 -184 -217 -371 -326 -560c-50 -44 -130 -41 -130 34c0 24 12 45 26 70c82 152 157 303 236 444c-154 -13 -302 -28 -446 -28c-61 0 -94 32 -94 88c0 41 34 65 102 72
c139 15 318 30 538 42c176 304 350 583 528 830c37 51 126 45 126 -24c0 -21 -7 -47 -22 -72c-142 -235 -290 -475 -438 -726c219 8 469 16 750 16zM1336 312c60 0 117 -26 174 -72c67 -54 122 -102 168 -142c63 -55 98 -105 98 -160c0 -67 -80 -83 -122 -42
c-138 134 -257 231 -352 298c-39 28 -28 118 34 118zM304 1016c144 0 272 -19 382 -54c58 -18 88 -47 88 -80c0 -88 -67 -90 -150 -60c-70 25 -179 33 -320 44c-58 5 -88 33 -88 78c0 47 31 72 88 72zM446 1504c56 0 200 -45 432 -136c27 -23 42 -49 42 -80
c0 -75 -95 -67 -162 -46c-102 33 -217 70 -342 118c-27 24 -42 51 -42 80c0 42 28 64 72 64z" /><glyph glyph-name="uni5979" unicode="&#x5979;" d="M568 -14c-248 63 -400 151 -400 440c0 88 44 330 132 726c-67 3 -169 13 -164 74c6 87 92 87 196 74c16 69 33 143 50 220c19 41 45 66 80 66c41 0 64 -22 64 -66c0 -71 -23 -167 -38 -236c64 -7 158 -19 226 -24c12 75 22 135 30 180c17 32 44 50 80 50
c68 0 74 -82 46 -138c-5 -33 -11 -69 -16 -106c129 -20 154 -6 208 -38c13 51 29 101 42 152c11 42 33 64 72 64c40 0 61 -28 64 -80c-10 -46 -41 -166 -50 -222c85 39 166 61 242 68c25 153 43 256 54 308c17 29 44 45 80 46c69 2 78 -78 50 -134
c-15 -79 -28 -154 -40 -226c116 -27 216 -143 216 -292c0 -78 -26 -216 -58 -266c-19 -30 -38 -49 -62 -50c-58 -3 -82 51 -62 104c30 80 36 155 36 218c0 73 -38 121 -94 142c-37 -221 -59 -393 -82 -510c-9 -48 -44 -72 -88 -72c-33 0 -51 27 -54 72c-8 -10 53 366 76 510
c-75 -14 -183 -50 -246 -88c-47 -259 -70 -488 -70 -688c0 -69 33 -120 98 -154c58 -30 145 -46 262 -46c44 0 149 33 316 100c54 35 138 31 138 -42c0 -44 -20 -69 -54 -82c-234 -90 -294 -125 -448 -120c-235 8 -450 82 -450 336c0 208 10 393 42 596
c-24 -12 -51 -42 -80 -42c-82 -2 -77 99 -26 126c43 37 89 71 138 100c3 15 6 30 10 46c-47 -5 -106 3 -200 10c-39 -267 -86 -720 -112 -988c65 -2 126 -20 126 -78c0 -53 -67 -74 -136 -64c-5 -51 -35 -77 -82 -82c-47 6 -67 45 -62 106zM580 134c26 287 85 758 112 972
c-69 7 -149 16 -240 28c-99 -443 -148 -690 -148 -742c0 -79 20 -134 60 -164c52 -39 124 -70 216 -94z" /><glyph glyph-name="uni597D" unicode="&#x597D;" d="M886 1248c88 4 66 -117 36 -172c84 -3 144 -34 150 -90c-13 -91 -104 -77 -210 -66c-129 -335 -228 -603 -296 -806c47 -33 101 -65 162 -96c38 -19 58 -42 62 -66c-4 -48 -33 -75 -88 -80c-36 -4 -151 52 -188 82c-11 -56 -43 -107 -98 -104c-36 2 -58 26 -58 70
c0 17 11 60 32 128c-96 75 -212 232 -208 368c2 79 41 273 124 584c-66 5 -150 23 -146 80c5 82 89 88 186 76c28 101 56 214 92 334c16 52 48 80 88 80c67 0 78 -62 58 -130c-32 -111 -63 -211 -88 -302c79 -11 196 -28 268 -40c34 76 36 146 122 150zM444 214
c74 220 198 566 260 726c-73 11 -158 23 -254 38c-81 -300 -122 -485 -122 -554c0 -58 58 -161 116 -210zM1478 1402c-65 3 -412 -37 -558 -58c-47 3 -72 25 -72 66c0 33 21 60 64 80c235 38 386 55 566 54c104 -1 195 -20 260 -76c82 -70 107 -109 102 -198
c-6 -104 -110 -213 -314 -326c60 -154 99 -266 122 -412c91 -5 147 -7 166 -12c53 -15 79 -43 82 -78c-15 -96 -110 -69 -228 -70c12 -148 0 -334 -56 -404c-55 -69 -120 -104 -196 -104c-99 0 -178 21 -240 56c-30 17 -47 41 -50 80c12 87 103 85 174 44
c65 -17 107 -26 124 -26c28 0 47 18 66 50c33 55 33 216 24 312c-145 5 -336 10 -570 28c-58 4 -88 33 -88 72c0 52 37 79 102 80c33 1 365 -13 530 -22c-17 79 -50 179 -98 302c-8 20 -13 40 -14 60c-15 11 -23 29 -24 54c4 21 25 56 74 88c176 117 270 185 270 220
c-1 108 -111 135 -218 140z" /><glyph glyph-name="uni5988" unicode="&#x5988;" d="M782 34c-20 -130 -176 -70 -268 -20c-19 -77 -30 -172 -114 -172c-36 0 -58 26 -58 70c0 21 13 80 40 176c-106 71 -259 210 -256 354c2 76 53 264 160 564c-63 6 -155 26 -150 82c7 88 103 88 206 72c44 116 94 244 146 384c19 50 47 80 88 80c64 0 76 -64 54 -126
c-48 -132 -100 -249 -140 -356c66 -11 152 -20 210 -32c39 87 25 170 124 170c37 0 59 -22 62 -62c3 -39 -25 -93 -34 -128c71 -7 127 -38 132 -90c-9 -78 -90 -79 -184 -66c-101 -309 -181 -564 -240 -764c47 -25 100 -47 158 -72c40 -17 60 -41 64 -64zM428 248
c66 222 168 545 220 706c-64 8 -137 18 -218 30c-107 -289 -160 -467 -160 -534c0 -62 96 -162 158 -202zM1068 1346c-58 -20 -160 -34 -156 48c1 36 17 63 46 80c129 40 355 95 510 96c211 2 330 -101 330 -306c0 -148 -12 -278 -56 -374c-11 -47 -31 -71 -62 -72
c-60 -2 -100 45 -78 102c35 92 44 188 44 280c0 205 -122 251 -312 210c-34 -7 -73 -13 -114 -22c6 -38 -14 -106 -30 -258c-19 -181 -22 -300 -22 -356c0 -86 37 -105 112 -110c-6 -6 322 84 378 72c178 5 270 -114 270 -276c0 -225 -21 -388 -64 -578
c-15 -25 -34 -42 -58 -50c-55 0 -88 24 -88 72c0 156 58 387 58 530c0 102 -56 154 -150 158c-38 11 -325 -73 -354 -72c-97 2 -172 21 -214 70c-31 36 -42 97 -42 176c0 180 17 373 52 580zM1470 320c99 0 152 -24 152 -72c0 -43 -25 -72 -72 -72c-375 0 -437 -38 -638 -38
c-55 0 -88 25 -88 72c0 33 21 60 62 72c84 24 280 38 584 38z" /><glyph glyph-name="uni59E8" unicode="&#x59E8;" d="M494 -12c-15 -74 -31 -167 -112 -164c-35 1 -54 27 -54 72c0 24 13 89 38 194c-33 33 -67 68 -96 106c-69 91 -102 184 -102 276c0 81 45 297 134 646c-78 0 -158 12 -158 82c0 82 116 62 196 64c17 71 35 147 60 226c16 51 48 80 88 80c35 0 54 -21 54 -58
c0 -89 -41 -176 -58 -250c73 -3 144 -5 212 -8c27 88 47 153 64 194c13 31 41 50 80 50s60 -25 64 -66c-6 -58 -40 -130 -52 -186l76 -4c49 -19 76 -44 80 -76c92 60 234 118 360 134c9 29 17 58 24 86c-91 3 -195 3 -312 8c-57 3 -88 32 -88 80c0 40 28 62 80 62
c128 0 249 -2 364 -6c14 61 33 112 100 112c58 0 77 -62 54 -118c73 -3 143 -7 210 -12c52 -19 80 -45 80 -80c0 -43 -26 -70 -66 -72c-53 -3 -190 13 -266 20c-7 -27 -13 -52 -20 -76c168 -5 312 -82 312 -252c0 -55 -41 -154 -66 -202c51 -40 18 -114 -54 -114
c-57 0 -172 4 -344 12c-24 -91 -47 -177 -68 -258c115 27 205 40 272 40c168 0 333 -88 330 -250c-1 -53 -35 -112 -96 -182c-22 -25 -47 -42 -80 -42c-70 0 -107 72 -50 112c45 48 70 91 68 128c-4 61 -103 74 -172 74c-89 0 -194 -16 -314 -48c-12 -51 -24 -99 -36 -146
c84 -20 228 -76 432 -168c50 -37 44 -125 -24 -128c-32 -1 -68 6 -106 20c-102 37 -213 83 -336 136c-11 -47 -17 -92 -28 -132c-13 -46 -45 -72 -88 -72c-36 0 -56 27 -56 72c0 35 25 159 76 372c-116 -35 -187 -52 -214 -52c-105 0 -158 53 -158 160c0 117 55 255 164 414
c-36 55 8 114 82 114c41 0 137 -3 288 -10c23 87 44 167 64 240c-79 -21 -168 -57 -266 -110c-28 -15 -48 -24 -60 -24c-61 3 -87 30 -78 82c-29 0 -68 2 -116 6c-116 -387 -206 -701 -270 -942c59 -45 129 -86 208 -128c34 -18 51 -42 54 -66c-4 -43 -33 -68 -88 -72
c-46 -3 -172 67 -216 100zM1044 764c-8 -23 -27 -51 -52 -90c-83 -132 -123 -217 -122 -250c2 -49 47 -43 92 -28c64 21 125 36 180 52c28 95 57 210 80 306c-56 3 -115 6 -178 10zM1486 1160c-24 -92 -47 -180 -70 -264c87 -4 155 -7 206 -10c49 73 76 131 74 174
c-4 99 -102 92 -210 100zM652 1108c-61 3 -131 5 -208 6c-93 -349 -140 -561 -140 -634c0 -59 51 -152 108 -216c69 254 184 652 240 844z" /><glyph glyph-name="uni59FF" unicode="&#x59FF;" d="M262 1504c149 0 275 -10 376 -30c47 -9 72 -36 72 -72c0 -47 -36 -72 -96 -72c-148 0 -271 10 -366 30c-47 10 -74 36 -74 72c0 47 32 72 88 72zM522 1072c60 19 143 8 142 -48c-1 -43 -29 -79 -88 -96c-135 -38 -245 -54 -328 -54c-65 0 -104 29 -104 80
c0 35 27 64 72 70c154 21 256 32 306 48zM1612 1570c131 0 286 -81 276 -210c-8 -104 -100 -204 -162 -256c-41 -35 -123 -14 -118 42c2 17 12 36 30 56c69 76 104 126 104 150c-1 64 -88 79 -154 80c-29 0 -79 -6 -150 -18c5 -25 -11 -51 -32 -78
c-52 -68 -105 -139 -160 -212c109 -57 245 -118 496 -226c50 -22 72 -57 72 -96s-24 -66 -62 -66c-31 0 -62 4 -90 16c-257 109 -416 188 -512 246c-55 -75 -107 -154 -166 -230c-22 -28 -49 -40 -72 -40c-72 0 -79 89 -42 146c124 190 251 357 378 504
c-90 -21 -218 -48 -320 -72c-46 -90 -47 -210 -154 -210c-36 0 -56 24 -56 64c0 21 9 52 26 92c70 170 123 292 160 364c38 45 142 54 142 -24c1 -32 -36 -96 -48 -128c321 73 460 106 614 106zM730 -120c-291 0 -426 94 -410 382c2 43 9 88 24 136c-100 0 -251 -37 -250 74
c0 36 32 59 96 66c65 7 139 10 222 14c35 67 85 133 138 208c23 33 48 54 88 56c48 3 66 -59 50 -110c-37 -52 -69 -101 -96 -146c217 9 479 16 784 20c-12 61 -24 106 -24 134c0 47 23 70 64 72c102 6 91 -129 114 -204c114 -6 350 36 350 -70c0 -43 -27 -68 -72 -70
c-85 -3 -167 -2 -246 -2c17 -75 34 -148 50 -220c42 14 117 44 156 54c47 -3 72 -24 72 -64c0 -35 -21 -60 -56 -74c-47 -19 -93 -37 -140 -54c10 -42 29 -104 36 -144c-3 -47 -27 -71 -72 -74c-88 -5 -93 98 -110 168c-194 -67 -588 -152 -768 -152zM462 222
c4 -188 73 -204 276 -204c233 0 493 73 728 152c-23 103 -43 191 -60 266c-394 -7 -620 -14 -896 -32c-32 -71 -48 -131 -48 -182z" /><glyph glyph-name="uni5B9E" unicode="&#x5B9E;" d="M542 928c47 0 100 -27 148 -82c39 -45 62 -89 62 -124c0 -74 -109 -85 -142 -26c-23 41 -53 72 -80 100c-57 29 -77 132 12 132zM798 1162c52 0 110 -32 164 -96c43 -52 63 -103 68 -146c-4 -36 -25 -64 -64 -64c-37 0 -65 15 -84 44c-31 47 -58 88 -90 116
s-56 55 -56 88c0 37 22 58 62 58zM1416 1368c-80 0 -587 -106 -1050 -226c7 -77 34 -162 34 -230c0 -45 -29 -72 -80 -72c-33 0 -60 18 -80 50c-33 215 -52 361 -50 440c1 44 24 72 66 72c44 0 73 -19 86 -50c3 -25 5 -50 8 -74c199 53 393 111 542 146
c-15 24 -29 45 -44 64c-27 17 -42 39 -42 66c0 45 25 70 72 70c39 0 81 -22 120 -68c29 -35 42 -70 46 -98c187 36 255 48 396 46c119 -1 220 -20 300 -70c92 -57 130 -91 124 -178c-9 -120 -96 -243 -154 -312c-43 -32 -122 -15 -118 42c1 23 10 48 28 74
c65 94 98 156 98 188c0 36 -25 66 -78 86c-63 24 -139 34 -224 34zM878 170c-68 -105 -137 -212 -206 -320c-49 -49 -130 -45 -130 32c0 23 11 46 26 72c99 170 195 331 292 480c-209 -27 -398 -60 -478 -84c-45 -15 -80 -22 -104 -22c-49 0 -80 22 -80 66c0 40 29 67 80 80
c186 48 426 84 678 108c129 195 257 376 388 540c38 48 126 44 126 -26c0 -21 -6 -47 -22 -72c-92 -139 -190 -279 -286 -424c175 16 357 26 548 26c98 0 147 -35 146 -80c-1 -40 -29 -66 -80 -66c-273 0 -511 -8 -712 -24l-104 -160c154 -66 412 -145 808 -278
c45 -15 62 -52 62 -88c0 -72 -85 -67 -142 -48c-392 134 -665 223 -810 288z" /><glyph glyph-name="uni5C31" unicode="&#x5C31;" d="M600 1608c44 0 96 -32 142 -96c34 -46 47 -93 54 -132c89 3 187 6 292 6c91 0 142 -24 142 -72c0 -40 -22 -66 -62 -66c-556 -5 -648 -48 -944 -48c-49 0 -80 26 -80 72c0 31 18 55 54 64c79 19 222 28 426 36c-16 29 -32 55 -48 76c-29 25 -50 54 -50 88
c0 47 27 72 74 72zM1106 82c42 179 186 675 250 892c-85 14 -240 -11 -236 92c4 111 190 62 280 60c57 192 99 324 128 394c14 33 41 50 80 50c67 0 78 -79 46 -138c-35 -113 -68 -222 -100 -326c91 -15 176 -32 254 -56c58 -18 88 -47 88 -80c0 -48 -26 -75 -66 -80
c-90 8 -206 56 -320 68c-136 -448 -230 -786 -288 -1012c-12 -47 -44 -74 -88 -74c-33 0 -51 25 -54 68c-17 5 -38 18 -64 34c-63 40 -157 65 -278 80c4 -29 14 -74 14 -102c0 -45 -27 -72 -72 -72c-48 0 -81 25 -88 72c-43 301 -61 478 -66 538c-198 21 -371 97 -358 312
c5 78 27 150 64 222c27 52 111 79 142 26c163 88 567 85 698 -24c99 -82 133 -144 128 -274c-3 -71 -26 -124 -70 -168c-99 -100 -258 -114 -450 -102c11 -95 22 -185 34 -272c136 -7 253 -47 358 -112c12 -8 25 -11 34 -16zM710 978c-113 0 -220 -22 -312 -78
c-36 -22 -60 -41 -80 -44c-19 -101 4 -178 94 -204c102 -29 250 -34 394 -34c96 0 165 15 204 48c80 68 43 197 -32 254c-51 39 -140 58 -268 58zM320 296c35 44 139 51 142 -22c0 -12 -7 -28 -20 -48c-62 -101 -102 -184 -130 -242c-21 -43 -56 -64 -96 -64
c-63 0 -66 74 -36 128c63 114 103 201 140 248zM1680 -70c-155 -10 -244 110 -244 286c0 84 35 243 114 472c11 33 37 48 66 48c83 -2 79 -75 56 -148c-69 -220 -98 -355 -98 -402c0 -99 5 -123 106 -122c17 -21 264 145 264 8c0 -25 -9 -50 -34 -64
c-93 -54 -171 -74 -230 -78zM1662 1352c24 156 277 22 266 -64c-6 -47 -31 -74 -72 -78c-73 -7 -88 64 -144 70c-29 15 -46 39 -50 72z" /><glyph glyph-name="uni5C41" unicode="&#x5C41;" d="M364 892c-20 -216 2 -786 2 -954c0 -47 -22 -73 -62 -74s-69 25 -88 74c-8 60 -11 387 -10 598c0 268 24 535 72 802c-23 11 -38 32 -38 64c0 36 27 57 72 72c143 47 455 88 938 88c207 0 359 -31 458 -94c93 -59 140 -153 140 -282c0 -124 -38 -210 -114 -256
c-101 -61 -226 -90 -374 -90c-387 1 -718 16 -996 52zM424 1342c-1 -71 -17 -174 -46 -310c32 0 84 -5 156 -12c232 -23 502 -34 810 -34c124 0 222 16 292 52c46 24 68 75 68 148c0 81 -21 141 -68 172c-60 41 -177 58 -346 58c-260 0 -503 -10 -726 -44
c-56 -9 -101 -23 -140 -30zM832 -120c-243 -16 -378 81 -378 316c0 73 43 249 130 526c15 45 44 72 88 72c48 0 72 -24 72 -72c0 -74 -41 -136 -54 -194c63 -3 385 -20 398 -24c47 -13 72 -39 72 -72c0 -40 -28 -62 -72 -62c-56 0 -202 7 -438 22c-29 -99 -44 -162 -44 -190
c-1 -132 42 -173 168 -176c5 -5 189 30 250 30c45 0 72 -21 72 -64c0 -41 -21 -70 -64 -80c-98 -22 -165 -30 -200 -32zM1592 -112c-257 -16 -400 83 -400 332c0 75 50 251 144 532c15 46 40 72 80 72c47 0 70 -24 70 -72c0 -67 -36 -122 -50 -176c46 -2 346 -22 356 -22
c45 -16 72 -41 72 -74c0 -40 -28 -64 -72 -64c-51 0 -185 9 -402 26c-36 -116 -54 -191 -54 -226c0 -143 54 -180 200 -182c3 -8 213 54 278 54c47 0 74 -21 74 -62c0 -43 -23 -67 -66 -80c-113 -35 -189 -55 -230 -58z" /><glyph glyph-name="uni5C81" unicode="&#x5C81;" d="M646 726c169 25 552 69 726 68c116 0 210 -17 282 -50c175 -84 126 -236 2 -358c-138 -135 -476 -309 -1010 -538c-66 -28 -174 -37 -174 40c0 37 18 63 46 74c329 128 575 245 744 342c125 71 228 132 294 200c36 37 52 65 52 80c0 19 -16 34 -48 44
c-103 30 -227 24 -372 12c-103 -9 -279 -28 -528 -60c-59 -7 -100 -15 -132 -10c-9 -13 -18 -25 -26 -36c93 -40 241 -125 440 -260c45 -30 45 -114 -14 -114c-37 0 -76 12 -116 34c-117 64 -245 143 -384 236c-45 -61 -87 -125 -134 -182c-22 -27 -49 -38 -70 -38
c-73 0 -78 88 -42 144c152 235 308 440 464 616c-301 6 -418 5 -414 272c0 55 15 132 46 232c12 40 33 62 64 62c41 0 63 -18 66 -54c4 -70 -67 -290 -16 -346c27 -16 208 -24 544 -24c0 109 0 249 14 442c4 50 32 80 74 80c43 0 72 -29 72 -80c0 -97 -18 -310 -16 -438
c131 7 282 19 452 42c139 19 113 52 88 180c-15 77 -29 129 -28 160c1 44 19 72 54 72c33 0 55 -11 64 -34c59 -159 74 -219 74 -352c0 -99 -56 -157 -170 -172c-273 -35 -526 -45 -808 -42c-1 -24 -13 -47 -32 -72c-43 -55 -85 -113 -128 -172z" /><glyph glyph-name="uni5DF2" unicode="&#x5DF2;" d="M510 720c265 -71 784 -112 1006 26c68 42 100 132 100 260c0 135 -17 232 -58 288c-50 68 -150 100 -294 100c-235 0 -455 -10 -652 -64c-106 -29 -173 -66 -212 -66c-53 0 -83 24 -88 72c4 33 27 55 70 66c132 71 414 126 848 126c368 0 545 -152 546 -522
c0 -175 -52 -296 -160 -360c-144 -86 -321 -126 -528 -126c-233 0 -435 22 -606 66c-49 -207 -47 -337 100 -440c89 -62 216 -90 376 -90c57 0 243 32 556 106c121 29 186 48 198 48c53 0 88 -22 88 -66c0 -49 -31 -75 -88 -88c-447 -100 -605 -144 -770 -144
c-197 0 -353 44 -464 134c-125 102 -166 202 -166 370c0 107 41 301 118 584c14 52 39 80 82 80c45 0 69 -24 72 -72c-17 -95 -58 -208 -74 -288z" /><glyph glyph-name="uni5E2E" unicode="&#x5E2E;" d="M520 1112c-94 -5 -191 -32 -258 -32c-49 0 -80 27 -80 74c0 28 21 53 58 64c56 17 164 23 320 30c12 48 24 91 36 130c-104 8 -218 11 -340 24c-53 6 -79 37 -82 80c5 37 33 62 82 62c80 0 293 -21 380 -28c31 86 25 158 116 158c37 0 60 -25 64 -66
c3 -27 -19 -73 -28 -104c136 -11 217 -18 244 -22c35 -16 56 -40 56 -72c0 -40 -29 -66 -80 -66c-77 0 -169 14 -260 20c-11 -37 -22 -74 -34 -110c44 1 91 2 142 2c92 0 144 -24 144 -72c0 -37 -24 -61 -64 -62c-101 -3 -188 -1 -260 -4c-15 -51 -29 -99 -44 -146
c110 -2 376 40 376 -68c0 -43 -26 -72 -72 -72c-139 0 -253 -1 -342 -4c-17 -65 -30 -123 -44 -172c-13 -46 -44 -72 -88 -72c-35 0 -53 27 -54 72c0 17 11 71 34 162c-64 -9 -155 -24 -194 -24c-55 0 -88 25 -88 72c0 33 22 58 64 70c50 15 136 23 256 30
c12 46 25 100 40 146zM1648 1434c-112 53 -282 -10 -442 -10c-44 0 -68 19 -72 50c3 29 14 56 34 80c111 25 230 38 358 38c149 0 315 -77 314 -208c-1 -75 -69 -139 -208 -192c149 -64 224 -138 224 -222c2 -186 -259 -277 -430 -198c-21 9 -37 21 -46 34
c10 -40 28 -96 36 -134c-3 -45 -27 -72 -72 -72c-48 0 -77 25 -88 72c-75 309 -119 494 -130 554c3 47 25 72 66 72c51 0 77 -27 88 -80c26 -127 59 -249 90 -366c7 27 27 46 62 46c23 0 65 -5 128 -8c85 -4 144 24 144 88c0 105 -60 126 -170 136c-139 13 -142 115 -26 148
c127 36 188 83 188 122c0 19 -16 35 -48 50zM920 356c-163 -40 -311 -94 -458 -148c11 -79 28 -144 34 -216c7 -79 -123 -77 -146 -24c-20 98 -56 398 -56 504c0 46 25 74 64 74c44 0 74 -27 80 -74c6 -42 6 -83 10 -122c133 63 300 112 458 152c-12 90 -30 170 52 178
c76 8 83 -77 88 -148c220 32 455 44 602 -66c87 -65 126 -115 120 -214c-8 -116 -26 -301 -130 -314c-61 -8 -98 57 -68 108c25 76 39 143 38 202c-2 115 -145 160 -274 160c-80 0 -171 -8 -274 -24c18 -160 52 -310 52 -464c0 -44 -22 -70 -58 -70c-45 0 -75 21 -88 62
c-19 184 -34 332 -46 444z" /><glyph glyph-name="uni5E74" unicode="&#x5E74;" d="M1072 -96c14 80 13 174 20 264c-310 -7 -549 -40 -836 -40c-57 0 -88 30 -88 82c0 33 31 57 94 64c66 8 142 11 226 18c0 127 3 314 8 542c-24 62 5 90 88 102c126 18 298 37 518 48c1 80 2 168 2 258c-161 11 -349 23 -562 38c-9 3 -18 5 -26 6
c-103 -171 -177 -312 -230 -420c-21 -42 -55 -64 -96 -64c-35 0 -54 23 -54 64c0 33 17 82 52 146c148 276 256 476 338 588c36 49 142 52 146 -22c3 -29 -26 -85 -58 -130c132 -5 1134 -62 1162 -70c57 -17 88 -50 88 -90c0 -50 -35 -78 -88 -78c-89 0 -263 8 -522 24
c5 -78 0 -163 0 -244c119 5 247 10 384 10c83 0 130 -25 130 -72c0 -44 -25 -71 -72 -72c-167 -5 -314 -7 -442 -12c-2 -172 -5 -354 -10 -524c164 4 344 8 540 8c81 0 126 -25 126 -72c0 -43 -25 -69 -70 -70c-227 -7 -428 -8 -604 -12c-7 -113 -14 -209 -22 -286
c-15 -36 -41 -56 -80 -56c-38 0 -58 28 -62 72zM1096 316c4 174 6 317 6 520c-168 -11 -306 -31 -464 -40c-4 -140 -8 -338 -8 -498c137 8 293 14 466 18z" /><glyph glyph-name="uni5E78" unicode="&#x5E78;" d="M984 1608c68 3 86 -65 88 -122c179 5 381 12 608 12c81 0 128 -27 128 -74c0 -44 -27 -71 -74 -72c-257 -5 -476 -5 -656 -12c3 -65 8 -123 10 -184c181 5 384 12 608 12c81 0 126 -25 126 -72c0 -44 -25 -70 -70 -72c-95 -4 -185 -3 -270 -4c-15 -61 -73 -177 -176 -348
c105 4 216 8 332 8c83 0 130 -24 130 -70c0 -44 -25 -71 -72 -72c-219 -7 -409 -11 -570 -20c9 -70 22 -136 32 -202c180 9 381 20 602 20c81 0 128 -25 128 -72c0 -43 -27 -68 -74 -70c-241 -8 -453 -14 -634 -26c14 -91 42 -180 42 -272c0 -45 -27 -72 -72 -72
s-79 24 -88 72c-19 98 -27 185 -38 260c-257 -15 -480 -76 -720 -76c-57 0 -88 29 -88 80c0 36 33 52 96 64c169 31 399 63 692 82c-13 97 -23 165 -28 202c-200 -14 -391 -50 -584 -50c-57 0 -88 28 -88 80c0 35 32 53 96 62c66 9 142 23 230 32c-84 179 -135 292 -154 340
c-79 -5 -155 -10 -228 -10c-57 0 -88 28 -88 80c0 35 32 54 96 62c168 20 399 37 692 48c-6 59 -9 122 -14 182c-177 -11 -362 -28 -534 -28c-57 0 -88 28 -88 80c0 35 32 55 96 62c129 15 301 26 514 34c-8 66 12 124 62 126zM622 982c51 -119 109 -227 164 -336
c111 8 236 15 376 20c8 65 66 182 174 350c-304 -8 -513 -18 -714 -34z" /><glyph glyph-name="uni5F00" unicode="&#x5F00;" d="M1350 710c-11 273 -40 329 -40 508c0 47 21 70 64 70c45 0 75 -29 88 -88c15 -67 29 -229 44 -488c85 0 173 2 262 2c80 0 126 -26 126 -72c0 -44 -25 -72 -72 -74c-109 -5 -212 -2 -308 -2c19 -311 28 -515 28 -612c0 -84 -27 -130 -72 -130c-55 0 -86 32 -88 88
c-8 268 -13 485 -22 652c-316 -4 -529 -11 -738 -20c-63 -239 -110 -441 -142 -606c-23 -36 -52 -56 -88 -56s-56 20 -56 56c0 168 94 447 126 598c-83 -3 -162 -6 -238 -6c-57 0 -88 29 -88 80c0 35 32 57 96 62c77 7 167 10 270 14c61 241 113 427 154 556
c36 42 134 45 134 -24c0 -156 -97 -384 -126 -526c193 8 422 14 686 18zM382 1512c82 3 1336 -50 1352 -56c51 -16 80 -42 80 -78c0 -42 -31 -64 -80 -64c-171 0 -627 12 -1368 54c-51 3 -80 31 -80 64c0 52 35 78 96 80z" /><glyph glyph-name="uni5F88" unicode="&#x5F88;" d="M680 1378c51 0 80 -25 80 -64c0 -35 -25 -61 -66 -80c-265 -123 -411 -184 -438 -184c-47 0 -74 21 -74 62c0 44 24 79 66 98c242 110 386 168 432 168zM472 664c0 -214 54 -386 54 -576c0 -46 -25 -70 -64 -70c-63 0 -78 55 -86 120c-22 183 -36 364 -56 540
c-56 -20 -91 -30 -104 -30c-47 0 -72 22 -72 66s21 79 62 96c293 122 469 182 522 182c24 0 42 -5 54 -14c28 121 62 256 102 404c-60 -12 -116 0 -116 58c0 37 21 69 64 80c187 50 381 72 580 72c286 0 424 -164 418 -482v-154c-3 -221 -54 -337 -194 -394
c86 -43 148 -138 148 -234c0 -81 -25 -154 -74 -218c73 -22 218 0 218 -92c0 -47 -33 -71 -88 -72c-57 -1 -142 15 -254 46c-113 -80 -241 -120 -382 -120c-169 0 -304 36 -396 118c-83 74 -120 201 -120 372c0 119 22 283 66 492c-111 -51 -218 -91 -296 -122
c9 -21 14 -44 14 -68zM1046 1412c2 -35 -34 -152 -66 -252c31 3 469 -27 476 -30c45 -16 72 -40 72 -72c0 -42 -28 -66 -72 -66c-61 0 -225 10 -490 32c-8 1 -15 3 -20 6c-29 -121 -54 -231 -74 -328c37 -4 84 -18 144 -26c194 -25 464 -46 584 44c51 38 80 116 80 244
c0 219 -20 354 -64 404c-48 54 -121 80 -214 80c-97 0 -216 -12 -356 -36zM1184 304c-2 75 31 149 88 208c-184 3 -325 16 -424 40c-11 -84 -16 -156 -16 -216c-3 -219 142 -317 356 -318c69 0 137 14 204 42c-104 47 -204 127 -208 244zM1638 328c0 74 -77 132 -142 130
c-48 -1 -93 -14 -130 -46c-27 -24 -38 -61 -38 -108c-11 -47 137 -131 210 -152c67 57 100 116 100 176z" /><glyph glyph-name="uni5FC3" unicode="&#x5FC3;" d="M480 1280c33 0 54 -19 54 -54c0 -102 -97 -343 -272 -722c-14 -30 -37 -46 -64 -46c-38 0 -62 24 -62 62c0 120 92 355 264 706c17 35 44 54 80 54zM848 1314c78 -8 64 -94 40 -164c-150 -439 -208 -728 -208 -852c0 -87 34 -148 96 -194c89 -66 207 -104 362 -104
c73 0 208 54 400 168c44 26 71 42 86 42c39 0 64 -27 64 -74c0 -33 -18 -55 -50 -64c-211 -143 -349 -208 -536 -208c-152 0 -285 26 -386 96c-138 95 -182 205 -182 378c0 113 74 421 234 918c12 36 43 54 80 58zM1088 1050c53 0 182 -125 408 -352
c48 -48 55 -144 -26 -144c-27 0 -58 11 -90 38c-99 82 -201 194 -326 312c-49 46 -53 146 34 146zM1440 1504c49 0 177 -93 382 -278c27 -24 42 -51 42 -80c0 -78 -93 -78 -150 -34c-90 70 -193 151 -308 248c-53 44 -52 144 34 144z" /><glyph glyph-name="uni60EF" unicode="&#x60EF;" d="M530 664c36 10 82 27 118 34c40 -1 62 -25 62 -72c0 -32 -13 -55 -38 -64c-55 -21 -107 -37 -154 -50c-11 -149 -14 -304 -22 -462c-3 -52 -31 -82 -72 -82c-44 0 -74 33 -74 88c0 125 7 269 20 432c-130 -19 -236 86 -234 222c2 115 37 263 112 444c17 24 41 36 72 38
c61 4 82 -88 38 -126c-53 -168 -80 -281 -80 -340c0 -73 33 -115 104 -96c23 223 56 475 98 756c7 49 30 80 70 80c44 0 70 -28 72 -80s-77 -525 -92 -722zM1352 520c42 46 126 47 126 -24c0 -21 -5 -48 -24 -72c-139 -180 -291 -369 -446 -574c-27 -21 -51 -34 -72 -34
c-64 0 -69 86 -32 138c153 214 300 404 448 566zM1310 64c7 73 103 68 160 34c38 -23 108 -58 210 -106c42 -20 62 -51 62 -88c0 -70 -89 -72 -142 -46c-119 57 -199 99 -240 126c-30 20 -46 47 -50 80zM1696 460c0 163 -108 182 -256 182c-117 0 -268 -28 -452 -86
c-40 -13 -53 -19 -80 -18c20 -104 32 -202 54 -290c17 -67 13 -142 -50 -142c-62 0 -78 51 -90 106c-30 142 -51 283 -78 422c1 60 22 93 62 96c49 3 73 -29 80 -70c148 71 357 116 570 116c115 0 210 -21 278 -72c85 -64 106 -134 106 -252c0 -83 -39 -267 -64 -322
c-24 -27 -46 -41 -66 -42c-81 -2 -91 65 -68 128c37 102 54 184 54 244zM1272 818c-245 -6 -468 61 -482 288c-75 -10 -136 12 -134 78c-9 50 82 66 146 70c20 76 59 167 118 274c17 56 118 72 138 12c85 35 192 50 302 52c234 4 395 -110 432 -294c87 4 160 -20 160 -72
c0 -74 -77 -75 -154 -74c-5 -92 -46 -167 -124 -222c-107 -75 -242 -108 -402 -112zM1372 1466c5 -58 0 -120 -2 -178c89 4 183 7 282 8c-36 120 -120 163 -280 170zM1658 1150c-111 -3 -209 -5 -296 -8c-7 -83 -16 -147 -28 -194c171 20 295 52 324 202zM1222 1136
c-112 -6 -191 -14 -292 -22c8 -52 34 -90 76 -118c37 -25 98 -43 186 -50c8 65 27 120 30 190zM1230 1446c-65 -9 -163 -76 -232 -66c-20 -41 -35 -79 -46 -114c83 7 175 12 276 16c1 51 2 105 2 164z" /><glyph glyph-name="uni610F" unicode="&#x610F;" d="M918 1500c-26 18 -40 51 -40 92c0 68 84 86 126 36c33 -39 83 -69 92 -118c161 8 342 18 542 18c99 0 152 -24 154 -72c3 -100 -146 -63 -240 -70c-7 -33 -18 -78 -34 -134c117 5 359 24 354 -76c-2 -39 -29 -64 -80 -64c-582 0 -1050 -43 -1430 -136
c-49 -12 -83 -22 -106 -22c-51 0 -82 20 -82 62c0 41 30 67 82 80c99 25 205 49 320 68c-17 36 -35 96 -44 142c-80 -16 -143 -34 -190 -34c-55 0 -86 27 -86 72c0 35 22 60 64 74c113 37 313 63 598 82zM720 1186c208 28 419 52 648 60c5 32 17 78 34 138
c-364 -7 -607 -23 -728 -48c11 -60 26 -110 46 -150zM1046 -126c-198 0 -352 74 -352 240c0 79 13 155 50 220c-51 7 -99 14 -142 28c-194 62 -274 144 -274 302c0 73 24 150 64 234c20 42 64 71 106 44c138 52 344 58 548 58c255 0 444 -21 562 -78
c139 -67 189 -117 184 -250c-9 -235 -108 -363 -360 -366h-114c1 -1 3 -3 6 -4c56 -78 138 -139 138 -246c0 -74 -106 -99 -144 -38c-51 83 -84 152 -120 192c-19 20 -34 56 -28 96c-112 0 -214 5 -306 14c19 -34 -33 -154 -24 -168c4 -105 72 -130 190 -134
c36 -1 105 25 168 38c41 -1 66 -25 66 -72c0 -27 -18 -51 -50 -72c-67 -25 -123 -38 -168 -38zM1540 804c-173 62 -756 70 -946 8c-50 -16 -66 -19 -94 -18c-12 -32 -20 -60 -24 -84c79 15 232 26 460 26c97 0 152 -24 152 -72c0 -43 -26 -71 -72 -72
c-299 -5 -359 -6 -506 -26c31 -33 78 -57 142 -72c121 -29 370 -44 746 -44c103 0 184 9 220 92c18 40 28 89 28 146c0 53 -36 91 -106 116zM240 0c0 117 -3 298 102 298c40 0 62 -25 66 -66c-15 -78 -26 -146 -26 -270c0 -51 -25 -80 -62 -80c-53 0 -80 39 -80 118z
M1662 290c80 0 146 -127 188 -170c60 -63 84 -200 -20 -200c-27 0 -53 9 -70 34c-53 80 -92 145 -130 184c-19 20 -30 47 -30 86c0 40 24 66 62 66z" /><glyph glyph-name="uni611F" unicode="&#x611F;" d="M324 1182c-24 -140 -31 -607 -4 -758c-3 -45 -22 -70 -58 -70c-40 0 -69 23 -88 70c-12 289 -13 699 46 976c-29 11 -46 29 -46 56c0 41 30 62 82 64s672 -22 910 -34c-16 52 -24 90 -24 114c0 45 20 74 58 74c91 0 84 -128 116 -194c159 -7 256 -11 292 -14
c19 -8 33 -17 44 -26c-31 56 -80 64 -86 138c4 32 23 56 58 56c36 0 67 -23 100 -62c38 -45 70 -84 98 -118c36 -45 58 -87 58 -132c-1 -66 -77 -85 -120 -42c-35 55 -65 101 -92 140c12 -48 -20 -84 -68 -84c-52 0 -131 2 -236 6c53 -144 113 -278 180 -402
c59 68 116 133 176 190c43 41 120 29 120 -34c0 -20 -8 -43 -26 -64c-61 -75 -127 -148 -194 -224c47 -72 94 -141 146 -206c48 -61 75 -105 74 -136c-2 -41 -24 -66 -64 -66c-36 0 -60 15 -72 42c-64 76 -124 159 -180 250c-65 -77 -129 -157 -196 -234
c-21 -23 -44 -34 -64 -34c-69 0 -69 82 -34 130c71 98 144 188 216 272c-86 151 -169 357 -234 522c-212 8 -497 21 -854 40c-4 -52 -19 -120 -34 -206zM1032 1234c71 0 110 -21 110 -58c0 -39 -19 -63 -54 -64c-304 -6 -418 -32 -642 -32c-47 0 -72 25 -72 66
c0 29 27 46 80 54c118 17 310 34 578 34zM1168 730c13 -237 -181 -322 -408 -322c-108 0 -196 28 -266 78c-61 44 -86 109 -86 206c0 67 29 154 88 262c16 52 104 64 128 16c65 17 130 30 208 30c194 0 327 -101 336 -270zM1038 728c-4 122 -84 154 -222 154
c-37 0 -89 -15 -156 -44c-38 -18 -53 -26 -88 -20c-51 -104 -58 -188 26 -248c37 -27 107 -40 208 -40c145 0 237 44 232 198zM350 312c31 61 122 56 122 -22c0 -18 -11 -40 -24 -68c-35 -80 -66 -174 -90 -284c-10 -46 -31 -74 -64 -74c-47 0 -70 31 -70 82
c0 74 101 355 126 366zM840 122c2 -98 57 -128 160 -130c45 0 110 17 192 54c53 24 96 1 96 -62c0 -24 -16 -49 -48 -64c-107 -51 -167 -62 -262 -62c-77 0 -142 18 -192 58c-113 90 -98 282 -26 420c14 27 33 42 64 42c39 0 62 -19 62 -58c0 -45 -54 -192 -46 -198z
M1134 312c13 84 114 66 156 6c39 -36 69 -69 94 -96c36 -37 56 -72 56 -108c-1 -67 -82 -89 -122 -42c-66 77 -115 139 -158 176c-17 15 -25 37 -26 64zM1574 362c44 0 85 -25 128 -72c48 -53 88 -100 122 -140c46 -54 72 -105 72 -158c0 -66 -79 -78 -120 -40
c-91 131 -166 229 -232 288c-37 33 -29 122 30 122z" /><glyph glyph-name="uni6162" unicode="&#x6162;" d="M272 568c-93 -2 -154 53 -154 152c0 67 35 238 122 506c13 38 45 54 80 54c75 0 57 -86 38 -150c-67 -223 -102 -349 -102 -378c0 -38 70 -32 116 -24c47 327 83 549 108 666c16 31 39 46 70 46c69 0 76 -74 50 -126c-27 -145 -55 -331 -86 -558c47 9 116 32 158 10
c12 45 36 97 72 154c14 47 86 57 110 18c211 69 742 65 874 -24c89 -60 112 -111 112 -226c0 -101 -30 -170 -92 -204c-70 -38 -227 -57 -468 -60c-186 -3 -449 -1 -530 56c-51 35 -79 87 -86 156c-53 -21 -125 -36 -172 -46c-25 -192 -38 -354 -54 -484
c-4 -36 -36 -54 -80 -58c-32 5 -51 30 -54 74c-3 46 23 251 46 448c-23 -4 -52 -1 -78 -2zM908 1578c197 69 631 69 774 -36c97 -71 126 -135 126 -262c0 -57 -22 -107 -68 -148c-64 -57 -196 -86 -396 -90c-165 -2 -350 -3 -458 40c-112 44 -155 111 -150 232
c3 75 15 155 46 240c15 44 94 62 126 24zM1288 1504c-155 0 -269 -17 -344 -50c-23 -11 -41 -17 -54 -20l-8 -24c176 -3 326 -3 446 -16c36 -4 54 -29 54 -58c0 -40 -29 -64 -80 -64c-171 0 -314 6 -430 14c8 -44 37 -72 84 -94c66 -31 427 -36 568 -18
c78 10 148 50 148 124c0 65 -22 112 -66 140c-72 44 -178 66 -318 66zM1404 862c5 -40 -3 -51 -14 -126c-9 -61 -11 -128 -16 -190c131 4 221 17 272 36c44 17 66 55 66 116c0 59 -25 97 -72 120c-46 22 -124 39 -236 44zM1160 860c-10 -72 -43 -217 -42 -314h124
c-7 77 14 195 34 320c-40 -3 -79 -5 -116 -6zM986 552c-6 73 12 167 38 296c-63 -9 -129 -18 -186 -32c-21 -44 -50 -109 -48 -136c7 -113 86 -108 196 -128zM1514 264c-238 0 -423 -70 -698 -70c-41 0 -64 18 -64 54c0 33 32 62 96 72c317 49 500 64 682 64
c115 0 221 -55 212 -168c10 -57 -86 -115 -166 -138c81 -19 169 -39 264 -60c49 -36 40 -122 -26 -122c-189 0 -343 57 -522 88c-115 -28 -269 -96 -422 -96c-48 0 -75 19 -80 58c4 28 23 46 58 54c65 15 128 29 188 42c-31 8 -61 15 -92 22c-40 32 -49 122 22 122
c68 0 196 -19 384 -58c63 19 123 40 182 60c34 12 52 20 52 28c0 32 -23 48 -70 48z" /><glyph glyph-name="uni6210" unicode="&#x6210;" d="M578 824c266 0 314 -160 308 -422c-3 -124 -43 -242 -126 -354c-9 -33 -33 -56 -72 -56s-58 25 -58 72c0 24 17 52 38 92c55 108 76 203 76 278c0 105 -10 178 -34 214c-18 28 -49 40 -86 40c-50 0 -194 -40 -272 -70c-13 -201 -16 -410 -24 -626c-2 -52 -31 -80 -72 -80
c-44 0 -74 32 -74 88c0 284 74 682 74 1200c0 9 1 17 4 22c-60 49 -15 130 76 130c81 0 307 -7 648 -20c-8 95 -36 276 62 276c106 0 66 -181 76 -280c315 -12 498 -19 550 -22c49 -19 76 -45 80 -80c-5 -47 -35 -72 -90 -72c-92 0 -269 5 -530 14c25 -323 84 -499 184 -706
c125 159 249 304 372 436c41 43 126 41 126 -24c0 -24 -5 -50 -22 -72c-123 -158 -254 -318 -386 -486c37 -51 79 -91 120 -128c62 -56 159 -114 296 -170c33 -13 50 -39 50 -72c0 -40 -25 -66 -64 -66c-64 0 -127 18 -190 52c-116 63 -219 151 -308 264
c-63 -83 -122 -169 -190 -250c-42 -50 -128 -49 -128 30c0 25 8 49 24 72c68 100 135 195 202 284c-127 227 -198 495 -224 840c-169 7 -367 15 -594 24c-4 -59 -17 -201 -38 -426c76 36 148 54 216 54zM1456 1570c0 94 130 71 180 10c47 -37 85 -72 116 -102
c41 -39 62 -78 62 -118c0 -76 -88 -90 -134 -38c-70 80 -141 130 -194 168c-21 15 -30 44 -30 80z" /><glyph glyph-name="uni6211" unicode="&#x6211;" d="M1158 916c-194 -12 -349 -27 -510 -56c1 -119 3 -233 6 -344c159 65 260 102 304 102c52 0 80 -24 80 -64c0 -35 -23 -63 -64 -82c-119 -55 -226 -99 -318 -138c2 -117 11 -299 8 -396c-1 -47 -25 -74 -64 -74c-37 0 -62 21 -74 56c-4 96 -11 249 -12 356
c-161 -67 -255 -100 -282 -100c-47 0 -72 21 -72 64c0 44 22 77 64 96c105 48 201 88 286 124c-4 127 -7 252 -10 376c-138 -17 -213 -68 -318 -68c-49 0 -80 21 -80 64c0 41 29 68 80 80c96 24 201 46 314 66c-1 115 -9 231 -6 342c-63 16 -132 39 -212 58
c-55 13 -88 33 -88 70c0 51 38 73 104 80c42 4 555 -121 554 -126c51 -19 80 -45 80 -80c0 -47 -35 -74 -88 -74c-37 0 -105 11 -202 34c2 -96 6 -189 8 -282c148 18 310 38 464 52c-50 153 -148 459 -136 502c3 48 24 75 64 80c45 -5 72 -30 82 -72
c46 -186 95 -351 144 -498c161 9 329 16 504 16c95 0 142 -33 142 -80c0 -39 -28 -64 -80 -64c-188 0 -361 -3 -518 -10c55 -151 103 -261 168 -388c96 95 181 168 246 230c44 42 146 54 146 -24c0 -29 -33 -69 -94 -124c-84 -75 -159 -147 -228 -212
c79 -133 169 -273 278 -414c17 -22 28 -36 28 -48c0 -40 -29 -62 -72 -66c-41 5 -73 29 -96 72c-87 97 -169 213 -246 348c-127 -125 -232 -230 -300 -324c-28 -38 -55 -64 -96 -64c-35 0 -54 23 -54 64c0 39 35 90 100 158c104 109 195 208 278 292
c-73 139 -144 302 -212 490zM1398 1554c47 0 165 -67 354 -202c60 -43 49 -152 -32 -152c-24 0 -49 8 -76 24c-80 47 -170 105 -268 178c-30 23 -48 53 -48 88c0 40 27 64 70 64z" /><glyph glyph-name="uni624B" unicode="&#x624B;" d="M872 1362c-203 -25 -467 -90 -640 -90c-41 0 -64 19 -64 58s20 65 56 80c749 124 1229 190 1438 190c43 0 64 -20 64 -56c0 -35 -17 -64 -54 -70c-236 -37 -449 -59 -634 -86c99 -124 177 -239 236 -346c137 4 286 8 446 8c81 0 128 -26 128 -72c0 -44 -25 -72 -72 -74
c-157 -5 -301 -3 -432 -6c44 -109 70 -225 78 -346c126 11 272 48 392 48c55 0 82 -23 82 -62c0 -40 -25 -63 -66 -72c-77 -17 -213 -38 -408 -62c-5 -163 -33 -285 -92 -360c-83 -106 -187 -156 -306 -156c-111 0 -217 -10 -226 88c7 44 30 72 72 72c35 0 137 -14 162 -14
c75 0 129 34 172 96c40 57 67 140 74 256c-311 -36 -628 -66 -984 -66c-73 0 -122 16 -120 88c1 35 27 56 74 58c371 14 713 35 1028 70c-7 124 -44 254 -92 358c-357 -6 -587 -46 -906 -46c-56 0 -88 29 -88 80c0 36 32 57 96 64c192 20 463 35 812 46
c-53 83 -126 176 -212 284c-9 11 -11 25 -14 40z" /><glyph glyph-name="uni6253" unicode="&#x6253;" d="M660 488c5 -74 20 -172 20 -240c0 -45 -27 -72 -74 -72s-81 25 -88 72c-9 66 -9 129 -14 188c-104 -29 -194 -52 -272 -52c-65 0 -101 30 -106 82c5 35 28 64 72 72c115 20 215 31 296 50c-11 143 -20 265 -28 368c-80 5 -172 10 -276 22c-56 7 -88 33 -88 72
c0 51 37 80 104 80c35 0 117 -5 248 -16c-8 113 -16 193 -16 238c0 47 25 72 66 72c51 0 83 -26 88 -80c8 -80 11 -160 18 -240c116 -8 185 -11 206 -16c50 -13 78 -43 78 -80c0 -46 -33 -72 -88 -72c-35 0 -96 3 -184 8c8 -103 17 -205 26 -308c42 20 103 53 150 52
c51 -1 79 -19 80 -54c3 -89 -150 -116 -218 -146zM1222 40c77 0 144 -42 174 32c14 35 28 87 28 160c0 461 -49 624 -176 1066c-8 12 -13 25 -16 40c-123 8 -262 13 -416 30c-57 6 -88 35 -88 72c0 52 37 78 104 80c63 2 1007 -57 1016 -64c51 -16 80 -42 80 -78
c0 -47 -33 -72 -88 -72c-76 0 -224 7 -444 22c108 -363 170 -640 170 -1088c0 -120 -15 -209 -54 -262c-49 -67 -113 -98 -184 -98c-93 0 -170 5 -178 88c8 44 32 72 72 72z" /><glyph glyph-name="uni628A" unicode="&#x628A;" d="M408 1440c66 6 85 -61 88 -118l12 -208c41 3 85 8 130 8c83 0 128 -28 130 -72c5 -107 -169 -62 -252 -80c7 -97 13 -192 18 -284c95 26 116 47 178 28c20 141 59 300 104 478c13 52 35 83 78 88c47 -4 71 -31 72 -80c0 -19 -14 -52 -28 -104c-43 -160 -66 -311 -82 -450
c39 5 57 -1 118 -12c64 -12 132 -22 204 -30c-6 193 20 448 62 790c1 11 4 20 8 28c-77 -7 -153 -12 -222 -32c-71 -21 -118 -46 -148 -46c-53 0 -83 24 -88 72c4 37 28 62 72 74c89 49 282 88 578 88c132 0 228 -51 292 -150c59 -90 90 -235 90 -438
c0 -193 -23 -329 -78 -402c-71 -94 -162 -138 -266 -138c-232 0 -432 17 -600 54c-14 3 -25 9 -34 14c-3 -51 -4 -100 -4 -148c0 -131 24 -216 66 -262c43 -47 123 -74 244 -74c189 0 370 30 542 90c40 13 68 20 84 20c52 -1 80 -17 80 -46c0 -52 -25 -81 -72 -98
c-216 -79 -421 -112 -672 -112c-329 0 -435 215 -418 574c2 36 1 73 4 112c-51 -24 -108 -40 -154 -60c5 -110 24 -277 24 -370c0 -46 -25 -72 -64 -72c-89 0 -79 81 -90 184c-7 69 -8 138 -12 206c-127 -47 -200 -70 -220 -70c-45 0 -72 22 -72 66c0 48 26 84 72 102
c79 31 150 55 210 78c-8 107 -15 213 -22 320c-91 -15 -252 -59 -252 58c0 36 33 54 98 64c38 6 85 17 144 24c-5 81 -16 161 -16 240c0 60 23 92 64 96zM1382 1394c-20 -176 -63 -565 -66 -798c48 -3 97 -4 148 -4c73 0 128 37 174 104c57 84 44 531 8 624
c-42 108 -135 121 -272 110c4 -9 7 -21 8 -36z" /><glyph glyph-name="uni6301" unicode="&#x6301;" d="M540 640c73 21 124 74 196 74c51 0 80 -22 80 -58c0 -43 -31 -74 -88 -96c-62 -24 -118 -47 -170 -68c5 -76 30 -198 26 -252c-3 -45 -26 -72 -66 -72c-108 0 -83 170 -106 278c-87 -25 -163 -46 -230 -46c-64 0 -102 29 -102 80c0 36 27 65 72 74c92 18 175 28 246 44
c-13 119 -26 237 -38 356c-83 13 -274 -6 -274 88c0 49 37 80 104 80c25 0 76 -3 152 -10c-8 68 -22 135 -22 202c0 60 22 93 62 96c68 5 85 -62 90 -122c5 -64 13 -127 20 -188c140 -9 222 -14 244 -20c51 -14 80 -43 80 -80c0 -46 -35 -72 -88 -72c-39 0 -111 4 -218 12
c11 -103 21 -203 30 -300zM1402 1016c162 12 237 50 374 50c51 0 80 -22 80 -58c0 -44 -28 -86 -88 -96c-355 -62 -645 -88 -864 -88c-67 0 -106 29 -106 80c0 38 28 62 72 74c152 7 283 15 394 24c1 13 4 27 8 40v232c-111 8 -240 16 -386 32c-56 6 -88 33 -88 72
c0 49 38 78 106 78c48 0 171 -7 368 -20v100c0 63 21 98 64 98c53 0 80 -35 80 -106v-102c196 -13 311 -21 344 -24c51 -19 80 -45 80 -80c0 -47 -35 -74 -88 -74c-60 0 -173 5 -338 16c-3 -86 -5 -190 -12 -248zM1360 18c15 0 77 -31 88 -26c13 0 23 16 32 48
c28 100 13 300 -4 410c-145 5 -334 6 -564 22c-58 4 -88 35 -88 74c0 51 37 77 104 80c34 0 342 -8 514 -20c-8 32 -17 65 -26 100c-35 52 -15 126 54 126c31 0 55 -10 74 -30c20 -71 37 -138 52 -202c112 -4 180 -7 204 -8c51 -16 80 -43 80 -80c0 -44 -35 -70 -88 -70
c-37 0 -93 1 -168 4c19 -148 28 -409 -30 -502c-60 -96 -157 -116 -258 -72c-29 12 -45 37 -48 74c5 41 29 72 72 72zM862 328c43 0 83 -24 124 -68c44 -47 81 -90 114 -128c43 -50 69 -97 68 -148c-1 -74 -102 -96 -144 -38c-75 105 -139 182 -192 230
c-21 20 -34 49 -34 88s25 64 64 64z" /></font>
</defs>
</svg>
